<svg width="42" height="42" viewBox="0 0 42 42" fill="none" xmlns="http://www.w3.org/2000/svg">
<g clip-path="url(#clip0_460_9558)">
<path d="M32.2947 19.858C32.2947 28.4067 25.3716 35.3244 16.8163 35.3244C8.26095 35.3244 1.33789 28.4067 1.33789 19.858C1.33789 11.3093 8.26095 4.39154 16.8163 4.39154C25.3153 4.39154 32.2947 11.3093 32.2947 19.858Z" fill="#A1A1AA"/>
<path d="M33.3636 29.7568V32.5126C33.3636 33.525 33.8139 33.9749 34.433 33.9749C35.1085 33.9749 35.5587 33.525 35.5587 32.5126V29.7568H36.1779V32.4564C36.1779 33.8624 35.4462 34.4248 34.433 34.4248C33.4762 34.4248 32.8008 33.9187 32.8008 32.4564V29.7568H33.3636Z" fill="#A1A1AA"/>
<path d="M37.08 33.6372C37.3614 33.8059 37.7554 33.9184 38.1494 33.9184C38.7685 33.9184 39.1062 33.5809 39.1062 33.131C39.1062 32.6811 38.8811 32.4561 38.262 32.2311C37.5303 31.9499 37.0237 31.5562 37.0237 30.9376C37.0237 30.2064 37.6428 29.7003 38.5434 29.7003C38.9937 29.7003 39.3314 29.8127 39.5565 29.9252L39.3314 30.4314C39.1625 30.3189 38.8811 30.2064 38.4871 30.2064C37.868 30.2064 37.6428 30.6001 37.6428 30.8813C37.6428 31.3313 37.9243 31.5 38.5434 31.7812C39.3314 32.0624 39.7254 32.4561 39.7254 33.131C39.7254 33.8621 39.2188 34.4808 38.0931 34.4808C37.6428 34.4808 37.1363 34.3683 36.9111 34.1996L37.08 33.6372Z" fill="#A1A1AA"/>
<path d="M23.1185 23.6266C22.6119 23.8515 21.5425 24.1327 20.3605 24.1327C19.0096 24.1327 17.8839 23.7953 16.9834 22.9517C16.1954 22.2205 15.7451 20.9832 15.7451 19.5772C15.7451 16.8776 17.6025 14.9091 20.6419 14.9091C21.7113 14.9091 22.4993 15.1341 22.8933 15.3028L22.6119 16.2589C22.1053 16.034 21.5425 15.8652 20.6419 15.8652C18.4468 15.8652 17.0397 17.215 17.0397 19.4647C17.0397 21.7706 18.3905 23.1204 20.5293 23.1204C21.3173 23.1204 21.8239 23.0079 22.1053 22.8954V20.1958H20.3042V19.2397H23.2873V23.6266" fill="#171717"/>
<path d="M25.3746 22.6138C25.8811 22.9513 26.6691 23.1762 27.4571 23.1762C28.6391 23.1762 29.3708 22.5576 29.3708 21.6577C29.3708 20.8141 28.8642 20.3079 27.6822 19.858C26.2188 19.2956 25.3183 18.5644 25.3183 17.2709C25.3183 15.8648 26.5003 14.8525 28.2451 14.8525C29.1457 14.8525 29.8211 15.0774 30.2151 15.3024L29.8774 16.2585C29.5959 16.0898 28.9768 15.8086 28.1888 15.8086C26.9505 15.8086 26.5003 16.5397 26.5003 17.1584C26.5003 18.002 27.0631 18.3957 28.3014 18.9019C29.8211 19.5205 30.6091 20.2517 30.6091 21.5452C30.6091 22.9513 29.5959 24.1323 27.4571 24.1323C26.6128 24.1323 25.656 23.8511 25.1494 23.5699L25.3746 22.6138Z" fill="#171717"/>
<path d="M34.9392 16.4269H34.8829L33.4195 17.2706L33.1943 16.3707L35.0517 15.3583H36.0649V24.0195H34.9392V16.4269Z" fill="#A1A1AA"/>
<path d="M4.54367 19.801C4.54367 12.9395 10.1159 7.37161 16.9827 7.37161C16.645 7.31537 16.251 7.31537 15.9132 7.31537C8.99019 7.31537 3.41797 12.8833 3.41797 19.801C3.41797 26.7187 8.99019 32.2866 15.9132 32.2866C16.3635 32.2866 16.8138 32.2866 17.2641 32.2304C17.1515 32.2304 17.0952 32.2304 16.9827 32.2304C10.1159 32.2304 4.54367 26.6625 4.54367 19.801Z" fill="#171717"/>
<path d="M7.58833 19.9141C7.58833 13.7838 12.5414 8.8345 18.6765 8.8345C18.3388 8.8345 18.0573 8.77826 17.7196 8.77826C11.5846 8.77826 6.5752 13.7838 6.5752 19.9141C6.5752 26.0444 11.5846 31.0499 17.7196 31.0499C18.1136 31.0499 18.5639 31.0499 18.9579 30.9937C18.9016 30.9937 18.789 30.9937 18.7328 30.9937C12.5414 30.9937 7.58833 26.0444 7.58833 19.9141Z" fill="#171717"/>
<path d="M10.5119 19.6901C10.5119 14.5159 14.677 10.354 19.8552 10.354C19.5738 10.354 19.2924 10.2978 19.0109 10.2978C13.8327 10.2978 9.61133 14.5159 9.61133 19.6901C9.61133 24.8644 13.8327 29.0825 19.0109 29.0825C19.3486 29.0825 19.6863 29.0825 20.0241 29.0262C19.9678 29.0262 19.9115 29.0262 19.7989 29.0262C14.677 29.0262 10.5119 24.8644 10.5119 19.6901Z" fill="#171717"/>
<path d="M13.1077 19.6884C13.1077 15.4703 16.5411 12.0396 20.7624 12.0396C20.5373 12.0396 20.3122 11.9833 20.087 11.9833C15.8094 11.9833 12.376 15.4141 12.376 19.6884C12.376 23.9628 15.8094 27.3935 20.087 27.3935C20.3685 27.3935 20.6499 27.3935 20.9313 27.3373C20.875 27.3373 20.8187 27.3373 20.7624 27.3373C16.5411 27.3935 13.1077 23.9628 13.1077 19.6884Z" fill="#171717"/>
</g>
<defs>
<clipPath id="clip0_460_9558">
<rect width="40.5252" height="40.494" fill="white" transform="translate(0.930176 0.753113)"/>
</clipPath>
</defs>
</svg>
