<svg width="160" height="26" viewBox="0 0 160 26" fill="none" xmlns="http://www.w3.org/2000/svg">
<g clip-path="url(#clip0_460_9572)">
<path fill-rule="evenodd" clip-rule="evenodd" d="M19.5883 23.7562C17.5278 22.4385 15.9619 17.9915 15.9619 12.6385C15.9619 12.4738 15.9619 12.2268 15.9619 12.062C10.1928 11.1562 6.07195 8.68558 5.90711 5.72087C4.50603 7.45029 3.68187 9.50911 3.68187 11.6503C3.76428 18.0738 10.7697 23.2621 19.5883 23.7562ZM1.12695 12.2268C1.12695 5.1444 9.94552 -0.6203 20.9069 -0.6203C31.7859 -0.6203 40.6869 5.1444 40.6869 12.2268C40.6869 19.3091 31.8683 25.0738 20.9069 25.0738C9.94552 25.0738 1.12695 19.3091 1.12695 12.2268ZM20.8245 1.19146C22.9673 1.19146 24.6981 4.40323 25.3574 8.85029C29.4782 8.19147 32.3628 6.70911 32.3628 5.06205C32.3628 2.75617 27.1706 0.944401 20.8245 0.944401C14.4784 0.944401 9.28619 2.83852 9.28619 5.06205C9.28619 6.79146 12.1708 8.27382 16.2916 8.85029C16.9509 4.40323 18.7641 1.19146 20.8245 1.19146ZM22.1432 23.7562C30.9617 23.2621 37.9672 18.0738 37.9672 11.7326C37.9672 9.59147 37.143 7.53264 35.7419 5.80323C35.6595 8.76793 31.4562 11.2385 25.6871 12.1444C25.6871 12.3091 25.6871 12.5562 25.6871 12.7209C25.6871 17.9915 24.2036 22.4385 22.1432 23.7562ZM20.8245 9.1797C21.7311 9.1797 22.7201 9.1797 23.5443 9.09734C23.1322 6.21499 22.0608 4.23852 20.8245 4.23852C19.5883 4.23852 18.5168 6.21499 18.1048 9.09734C19.0113 9.1797 19.9179 9.1797 20.8245 9.1797ZM20.8245 19.7209C22.3904 19.7209 23.7091 16.4268 23.7915 12.3091C22.8025 12.3915 21.8135 12.4738 20.8245 12.4738C19.8355 12.4738 18.8465 12.3915 17.8575 12.3091C17.9399 16.4268 19.2586 19.7209 20.8245 19.7209Z" fill="#A1A1AA"/>
<path fill-rule="evenodd" clip-rule="evenodd" d="M101.924 12.2266C101.924 6.79128 106.292 2.42657 111.731 2.42657C117.171 2.42657 121.539 6.79128 121.539 12.2266C121.539 17.6619 117.171 22.0266 111.731 22.0266C106.374 22.0266 101.924 17.6619 101.924 12.2266ZM111.814 18.403C114.863 18.403 117.336 15.603 117.336 12.1442C117.336 8.6854 114.863 5.8854 111.814 5.8854C108.764 5.8854 106.292 8.6854 106.292 12.1442C106.292 15.6854 108.764 18.403 111.814 18.403Z" fill="#A1A1AA"/>
<path fill-rule="evenodd" clip-rule="evenodd" d="M132.751 6.46125V21.6142H128.63V6.46125H122.861V3.08478H138.603V6.46125H132.834H132.751Z" fill="#A1A1AA"/>
<path fill-rule="evenodd" clip-rule="evenodd" d="M143.62 17.4142L142.054 21.6142H137.191L144.856 3.08478H147.411H149.966L157.631 21.6142H152.768L151.202 17.4142H147.411H143.62ZM147.411 14.2848H150.048L147.493 7.53183L144.939 14.2848H147.411Z" fill="#A1A1AA"/>
<path fill-rule="evenodd" clip-rule="evenodd" d="M56.347 6.46125V21.6142H52.2262V6.46125H46.457V3.08478H62.1162V6.46125H56.347Z" fill="#A1A1AA"/>
<path fill-rule="evenodd" clip-rule="evenodd" d="M63.1865 12.2266C63.1865 6.79134 67.5546 2.42664 72.9941 2.42664C78.4336 2.42664 82.8017 6.79134 82.8017 12.2266C82.8017 17.6619 78.4336 22.0266 72.9941 22.0266C67.637 22.0266 63.1865 17.6619 63.1865 12.2266ZM73.0765 18.4031C76.1259 18.4031 78.5984 15.6031 78.5984 12.1443C78.5984 8.68546 76.1259 5.88546 73.0765 5.88546C70.0271 5.88546 67.5546 8.68546 67.5546 12.1443C67.5546 15.6855 70.0271 18.4031 73.0765 18.4031Z" fill="#A1A1AA"/>
<path fill-rule="evenodd" clip-rule="evenodd" d="M92.4443 21.6142H94.5047V14.6142V14.5318L101.757 3.08478H96.8948L92.4443 10.8259L87.9114 3.08478H83.0488L90.3015 14.5318V14.6142V21.6142H92.4443Z" fill="#A1A1AA"/>
</g>
<defs>
<clipPath id="clip0_460_9572">
<rect width="159.064" height="25.5294" fill="white" transform="translate(0.455566 0.235413)"/>
</clipPath>
</defs>
</svg>
