<svg width="126" height="43" viewBox="0 0 126 43" fill="none" xmlns="http://www.w3.org/2000/svg">
<path d="M26.2988 35.1648L29.5508 37.7765L33 34.8423L31.6193 33.5523V12.9335C31.6193 12.9335 31.2994 12.9916 31.2941 13.0286C31.1128 14.0437 28.7885 16.4651 27.2691 16.8722V34.3823C27.2691 34.3823 26.6507 34.8423 26.2988 35.1648Z" fill="#A1A1AA"/>
<path d="M33.7613 23.9463H33.9319L35.9205 25.6329L36.0324 36.2859C36.0324 36.2859 36.5655 42.2389 30.5254 40.9436L30.568 41.4723C31.4476 41.9048 32.4235 42.1085 33.4042 42.0645C36.8161 41.8583 39.7375 40.2352 39.9774 37.1847C40.3879 31.8978 40.1693 23.7507 40.1693 23.7507L36.4962 21.1073L31.6023 24.9931V25.691C31.6023 25.691 33.8093 23.8988 33.7613 23.9463Z" fill="#A1A1AA"/>
<path d="M23.2073 26.0352C23.1894 26.0714 23.1734 26.1084 23.1593 26.1462C22.4653 28.0615 21.2933 29.7713 19.7528 31.1159C17.7776 32.8122 15.2252 33.6988 12.6144 33.5955C7.71514 33.3575 4.47382 30.085 4.47382 25.2845C4.53063 23.8147 4.89117 22.3722 5.53308 21.0463C6.17499 19.7204 7.08461 18.5393 8.20559 17.5762C7.85063 17.5153 7.48644 17.5333 7.13937 17.6291C3.30098 19.342 0.662109 22.916 0.662109 27.0873C0.662109 32.9029 5.84926 37.624 12.2466 37.624C16.9379 37.624 20.9842 35.081 22.8021 31.4278C23.5432 29.5193 23.2446 26.4053 23.2073 26.0352Z" fill="#A1A1AA"/>
<path d="M19.9508 18.2421H19.5039V31.7183H19.9508V18.2421Z" fill="#A1A1AA"/>
<path d="M12.001 16.4178L11.8783 31.4696L9.33008 33.0556L9.75122 33.5156L16.575 29.1856V20.8324C16.575 20.8324 16.527 18.1889 16.8149 18.1361" fill="#A1A1AA"/>
<path d="M10.217 16.835C11.763 17.2685 12.1895 17.6915 13.5009 17.8924C15.5948 18.1672 17.7064 18.2873 19.8183 18.2519C24.4403 18.2519 26.3382 13.8691 26.3382 13.8691C24.8082 14.5035 19.5037 14.9634 15.9692 14.2127C13.4476 13.684 12.3654 13.5148 10.6381 13.1553C0.295792 11.0987 0.0878906 19.2352 0.0878906 19.2352C1.15411 18.7964 3.15327 14.8471 10.217 16.835Z" fill="#A1A1AA"/>
<path d="M19.0332 24.565L19.6943 23.8358L20.3926 24.5861L19.7742 25.3787L19.0332 24.565Z" fill="#A1A1AA"/>
<path d="M56.0021 31.8506L55.6502 31.4964L51.572 34.7531L48.0694 32.2419L48.0375 30.7985L54.9412 25.5116L52.0998 20.6425C50.63 21.5117 49.1058 22.2869 47.5363 22.9634C46.7527 23.2489 43.7513 24.4331 43.7513 24.4331L43.8046 33.5213L41.5762 35.2712L41.8587 35.6889L43.8685 34.1557L48.7465 37.6662L56.0021 31.8506ZM48.0055 23.3599L49.1303 22.8312L51.7692 27.325L47.9895 30.2593L48.0055 23.3599Z" fill="#A1A1AA"/>
<path d="M89.9549 25.3362L89.3258 25.9759L88.9473 25.6322L89.9708 24.6066L91.197 23.3641L92.3378 22.201C94.2304 23.5756 95.9896 24.7916 95.9896 24.7916V33.018L98.5272 34.8684C98.5272 34.8684 100.276 33.129 100.334 33.0286C100.334 31.7544 100.334 26.5786 100.334 26.5786L98.5645 25.2198L97.8288 25.8596L97.4717 25.5318L100.814 22.201L104.237 24.8445L105.346 23.7501L105.671 24.136L104.573 25.2516V34.3186L105.463 34.8948L106.492 33.8956L106.833 34.2392L103.059 38.0194L100.35 36.0791V33.7687L96.2402 37.9453L91.8847 34.8948L90.7545 35.9522L90.392 35.6033L91.7727 34.2287V26.5891L89.9868 25.315" fill="#A1A1AA"/>
<path d="M89.9549 25.3362L89.3258 25.9759L88.9473 25.6322L89.9708 24.6066L91.197 23.3641L92.3378 22.201C94.2304 23.5756 95.9896 24.7916 95.9896 24.7916V33.018L98.5272 34.8684C98.5272 34.8684 100.276 33.129 100.334 33.0286C100.334 31.7544 100.334 26.5786 100.334 26.5786L98.5645 25.2198L97.8288 25.8596L97.4717 25.5318L100.814 22.201L104.237 24.8445L105.346 23.7501L105.671 24.136L104.573 25.2516V34.3186L105.463 34.8948L106.492 33.8956L106.833 34.2392L103.059 38.0194L100.35 36.0791V33.7687L96.2402 37.9453L91.8847 34.8948L90.7545 35.9522L90.392 35.6033L91.7727 34.2287V26.5891L89.9868 25.315" fill="#A1A1AA"/>
<path d="M114.512 24.6167V26.557L118.463 22.0578L122.44 24.8652L123.383 23.8871L123.746 24.2201L123.596 24.31L122.632 25.4203V33.8317L123.922 34.8309L124.78 33.8634L125.137 34.2176L121.779 38.003L118.676 35.5552V27.0486L116.234 25.3568L114.496 27.3394V34.8521L115.387 35.8195C115.349 35.8195 115.387 35.8777 115.349 35.8989C114.248 36.5402 113.205 37.2743 112.231 38.0929C112.231 38.0929 110.45 36.5703 109.565 35.9465L110.279 35.016V26.3825L108.605 25.1824L107.987 25.8221L107.619 25.4943L109.448 23.4483L110.738 21.9257L114.512 24.6167Z" fill="#A1A1AA"/>
<path d="M84.5889 24.5964C84.0074 24.2995 83.3915 24.074 82.755 23.9249C82.9363 23.7082 83.9065 22.5557 84.1731 22.249L84.7595 21.6886C84.7515 21.7553 84.7515 21.8228 84.7595 21.8895C84.7572 22.0449 84.7895 22.1988 84.854 22.3404C84.9186 22.482 85.0138 22.6078 85.1329 22.7087C85.252 22.8097 85.3921 22.8834 85.5431 22.9245C85.6942 22.9657 85.8526 22.9733 86.007 22.9469C86.3401 22.862 86.6333 22.6658 86.8373 22.3912C87.0413 22.1167 87.1435 21.7807 87.1265 21.4401C87.1288 21.2848 87.0965 21.1308 87.032 20.9892C86.9674 20.8476 86.8723 20.7219 86.7532 20.6209C86.6341 20.52 86.494 20.4463 86.3429 20.4051C86.1918 20.364 86.0335 20.3563 85.8791 20.3828H85.8204L85.7351 20.4145L85.6285 20.4568C84.7808 20.8163 84.0291 21.7309 83.4321 22.4975C82.8989 23.1478 82.4192 23.7082 82.3285 23.8034C81.0118 23.539 79.1299 23.3275 77.7651 23.1954C80.276 20.3722 82.4245 18.0618 85.4686 14.6835L85.1753 14.3663C84.6422 14.969 84.5462 15.0377 83.8212 15.7937C82.3843 14.9383 80.8157 14.3222 79.1778 13.9698C77.3595 13.5946 75.4902 13.5284 73.6495 13.7742C71.945 14.0987 70.3767 14.9196 69.1447 16.1321C68.2435 16.9742 67.5409 18.0032 67.0869 19.1456C66.6739 20.1129 66.5571 21.1793 66.7511 22.212C66.9057 23 67.2744 23.7312 67.8173 24.3268C68.0252 24.6281 69.1607 25.8811 73.9267 26.7852C73.3936 27.372 73.0204 27.8002 72.4287 28.4082C72.1563 28.7295 71.8527 29.0234 71.5224 29.2858C71.5338 29.2459 71.5427 29.2053 71.5491 29.1643C71.5857 29.0106 71.5872 28.8507 71.5534 28.6964C71.5196 28.542 71.4513 28.3972 71.3536 28.2724C71.256 28.1477 71.1314 28.0462 70.989 27.9755C70.8466 27.9048 70.6901 27.8665 70.5308 27.8637C70.1875 27.8881 69.864 28.032 69.6172 28.27C69.3705 28.5079 69.2163 28.8246 69.182 29.1643C69.1463 29.3176 69.1456 29.4769 69.1798 29.6305C69.214 29.7842 69.2824 29.9284 69.38 30.0525C69.4776 30.1766 69.6018 30.2775 69.7438 30.348C69.8857 30.4184 70.0416 30.4565 70.2003 30.4595C70.3013 30.4589 70.4017 30.4446 70.4988 30.4172H70.5735C71.1599 30.2058 71.6397 29.9573 72.9885 28.44C73.271 28.128 73.9481 27.409 74.4332 26.8962C75.1902 27.0283 76.0325 27.1552 76.9761 27.2663C77.9197 27.3773 78.6661 27.4989 79.3378 27.6416C78.2716 28.9845 77.3599 30.1317 76.0432 31.6967C72.501 31.298 68.9199 31.9648 65.7648 33.6105C63.8936 34.6256 61.9797 36.0478 61.324 38.3053C61.1187 38.9486 61.1186 39.6392 61.3237 40.2826C61.5288 40.926 61.9292 41.491 62.4702 41.9003C63.7977 42.7885 65.5036 42.0484 66.9697 41.3716C69.1394 40.3143 70.7974 38.7018 72.3541 37.0205C72.9565 36.365 74.1613 34.9058 74.2093 34.8318C75.1397 35.0589 76.0437 35.3813 76.9068 35.794C77.8316 36.2479 78.6979 36.8106 79.487 37.4699C79.535 37.5069 80.4786 38.4427 80.4573 38.4691L80.9638 38.0251C83.9385 35.5561 86.828 32.6325 87.3078 28.8735C87.5104 26.7905 85.9377 25.2203 84.6422 24.644L84.5889 24.5964ZM69.182 21.9159C68.3877 21.4401 67.732 20.8586 67.78 19.9545C67.7948 19.2891 67.9949 18.6406 68.358 18.0808C68.7212 17.521 69.2333 17.0717 69.8378 16.7824C72.594 15.503 75.3555 16.1955 77.5092 17.0943C78.6949 17.6171 79.8119 18.2811 80.8358 19.0716C79.1938 20.9802 78.7887 21.4348 77.1947 23.2324C73.7401 22.9945 69.9764 22.5557 69.1981 21.9318L69.182 21.9159ZM72.9724 35.5719C71.5238 37.3826 69.7642 38.9254 67.7746 40.1292C66.6533 40.9378 65.3013 41.3711 63.9149 41.3664C63.5086 41.3711 63.1081 41.2709 62.7527 41.0756C62.3993 40.7987 62.1499 40.4121 62.0445 39.9778C61.9391 39.5435 61.9839 39.0867 62.1717 38.6806C63.1313 36.4654 66.266 34.9322 69.6352 34.4934C70.9799 34.3114 72.3477 34.394 73.6602 34.7366L72.9671 35.5719H72.9724ZM76.5869 31.8711C77.6958 30.4278 78.7567 29.1643 79.8176 27.8055L80.3934 27.943C80.6389 28.0059 80.8809 28.0818 81.1184 28.1703C82.0106 28.4781 82.8488 28.9222 83.6027 29.4867C84.0006 29.762 84.3311 30.1222 84.5699 30.541C84.8087 30.9598 84.9496 31.4263 84.9824 31.9063C85.0151 32.3863 84.9388 32.8675 84.7591 33.3143C84.5794 33.7612 84.3008 34.1623 83.9439 34.4881C83.9439 34.4881 83.8319 34.6097 83.7466 34.689L83.608 34.7789C81.4772 33.3724 79.0936 32.3852 76.5869 31.8711Z" fill="#A1A1AA"/>
<path d="M47.2931 7.03369L43.1242 7.9536V7.84256C43.3816 7.77955 43.623 7.66434 43.8333 7.5042C43.8994 7.38496 43.9402 7.25351 43.953 7.11801C43.9659 6.9825 43.9505 6.84583 43.9079 6.71646C43.8599 6.3781 43.748 5.80183 43.604 5.16211C43.4601 4.5224 43.4014 4.23162 43.2255 3.53904C43.0976 3.01035 43.0336 2.86232 42.8203 2.78302C42.586 2.73984 42.3457 2.73984 42.1113 2.78302V2.66673L45.31 1.97415C45.8431 1.85255 46.0137 1.81026 46.0723 1.64636H46.1576L46.3655 2.89406H46.2642C46.2642 2.89406 46.147 2.46053 45.9337 2.36537C45.6771 2.29641 45.4066 2.29641 45.15 2.36537C44.9634 2.39709 44.7075 2.44996 44.4836 2.49754L43.9505 2.61913C44.0731 3.28528 44.2331 4.06244 44.3717 4.69158L45.6831 4.37967C45.8215 4.3587 45.9459 4.28464 46.0297 4.17347C46.1055 4.00808 46.1314 3.82446 46.1043 3.64478H46.2003L46.5628 5.26257H46.4668C46.3793 5.04269 46.2447 4.84429 46.0723 4.68102L44.473 5.04053C44.473 5.04053 44.6596 5.91815 44.8142 6.46799C44.9688 7.01782 45.1127 7.2293 45.8804 7.06012C46.3806 6.97707 46.8365 6.72487 47.1705 6.34637C47.2794 6.15968 47.3552 5.95583 47.3944 5.74369H47.4904L47.3571 7.03369" fill="#A1A1AA"/>
<path d="M39.1353 3.64929C38.9754 3.78675 38.9647 3.9718 39.098 4.48991C39.4392 5.75348 39.7164 6.67338 40.1642 8.14313C40.2175 8.33346 40.3668 8.76168 40.3668 8.76168L40.1855 8.85158L35.0943 5.79576C35.0943 5.79576 35.6701 7.72019 35.9313 8.55023C36.1925 9.38027 36.2938 9.45954 36.4964 9.48069C36.73 9.49837 36.965 9.48416 37.1948 9.43842L37.2321 9.54942L34.9238 10.2156L34.8918 10.1046C35.1118 10.02 35.3183 9.90424 35.5048 9.76091C35.6541 9.62874 35.6434 9.34854 35.5048 8.77756C35.2169 7.61973 34.5985 5.47326 34.5985 5.47326C34.4081 5.34711 34.202 5.24582 33.9855 5.17191C33.7669 5.11641 33.5377 5.11641 33.3191 5.17191L33.2871 5.06087L35.6221 4.38417L35.6541 4.49517C35.6541 4.49517 35.2596 4.64851 35.2383 4.88114C36.9336 5.93851 39.5831 7.48756 39.5831 7.48756C39.5831 7.48756 39.0926 5.90151 38.7035 4.75426C38.4742 4.08282 38.357 3.95064 38.0957 3.94535C37.8845 3.92992 37.6725 3.92992 37.4613 3.94535V3.83961L39.7111 3.18933L39.743 3.29507C39.5541 3.38526 39.3754 3.49514 39.2099 3.62286" fill="#A1A1AA"/>
<path d="M56.9412 0.700611C56.728 0.843357 56.5094 1.0707 56.2375 1.96418C55.7044 3.6507 55.0487 6.10381 55.0487 6.10381L54.8355 6.14083C54.8355 6.14083 54.7075 5.86062 54.6169 5.64386C53.9878 4.27984 52.9589 2.3131 52.9589 2.3131C52.9589 2.3131 52.3192 4.39086 51.7594 6.45803L51.5462 6.49504L51.3383 6.00865C50.7732 4.73452 50.2027 3.5344 49.6163 2.30784C49.511 2.00943 49.306 1.75569 49.0352 1.5888C48.8123 1.49004 48.5702 1.44132 48.3262 1.44608V1.33504L50.9331 1.05485V1.17115C50.7305 1.22931 50.3307 1.29803 50.368 1.66283C50.4006 1.87732 50.4653 2.08579 50.5599 2.28138C50.8211 2.8788 51.1996 3.69827 51.8021 4.96712C52.1592 3.76172 52.7083 1.795 52.7083 1.795C52.6114 1.5424 52.4207 1.33621 52.1752 1.21875C51.9896 1.12843 51.7849 1.08313 51.5782 1.08657V0.970247L54.2437 0.690059V0.806355C54.0678 0.84865 53.476 0.949093 53.524 1.39319C53.5566 1.6033 53.6232 1.80682 53.7212 1.9959C54.169 2.93697 54.5796 3.70885 55.0754 4.63934C55.0754 4.63934 55.5018 3.10086 55.7577 1.9959C55.8437 1.68431 55.8832 1.36192 55.875 1.03898C55.8377 0.679471 55.4432 0.716477 55.182 0.705903V0.589607L57.549 0.335815V0.452143C57.3355 0.492724 57.1302 0.567726 56.9412 0.674183" fill="#A1A1AA"/>
<path d="M68.0338 0.874171C67.7696 1.00445 67.5479 1.20601 67.3941 1.45571C66.861 2.19059 66.04 3.50173 66.04 3.50173C66.0019 3.75051 65.977 4.00112 65.9654 4.25249C65.9654 4.50097 65.9387 4.75474 65.9334 4.93978C65.9334 5.27814 65.9334 5.53189 66.1733 5.68521C66.3893 5.77733 66.6172 5.83961 66.8503 5.87027V5.98657L64.0035 5.79625V5.68521C64.2389 5.67988 64.473 5.64976 64.7019 5.59535C64.9205 5.52133 64.9951 5.31514 65.0431 4.89747C65.0911 4.47981 65.1391 3.73436 65.1391 3.73436C65.1391 3.73436 64.4034 2.12187 63.9022 1.19666C63.7928 0.963776 63.6326 0.757906 63.4331 0.593951C63.2933 0.507591 63.1373 0.450081 62.9746 0.4248V0.308472L65.3256 0.461779V0.578107C65.171 0.578107 64.7925 0.578116 64.7925 0.884755C64.7996 1.07018 64.8508 1.25132 64.9418 1.41344C65.0751 1.73594 65.8374 3.21625 65.8374 3.21625C66.1949 2.69112 66.5241 2.14756 66.8237 1.58789C66.9189 1.42439 66.9838 1.24535 67.0156 1.0592C67.0156 0.689118 66.6424 0.66269 66.4825 0.636255V0.51996L68.5456 0.652131V0.773719C68.3849 0.774198 68.2258 0.80468 68.0765 0.863587" fill="#A1A1AA"/>
<path d="M72.2417 6.68358C71.8638 6.62352 71.5017 6.48932 71.1767 6.28883C70.8516 6.08835 70.5702 5.82559 70.3488 5.51594C70.1274 5.20629 69.9705 4.85598 69.8873 4.48548C69.804 4.11497 69.7961 3.73171 69.864 3.35814C69.9415 2.97808 70.0952 2.61731 70.316 2.29735C70.5369 1.97738 70.8203 1.70473 71.1496 1.4956C71.4788 1.28648 71.8471 1.14515 72.2326 1.08002C72.618 1.01489 73.0127 1.02732 73.3932 1.11651C73.7736 1.16789 74.1395 1.29559 74.4685 1.49186C74.7975 1.68814 75.0827 1.94885 75.3067 2.25808C75.5307 2.5673 75.6888 2.91857 75.7714 3.29041C75.8539 3.66225 75.8592 4.04688 75.7869 4.42081C75.7093 4.80305 75.5552 5.16595 75.3336 5.48803C75.112 5.81011 74.8275 6.08479 74.4969 6.2958C74.1663 6.50682 73.7963 6.64988 73.409 6.71649C73.0216 6.7831 72.6247 6.7719 72.2417 6.68358ZM73.2119 1.3967C71.9805 1.16408 71.1755 2.27961 70.9462 3.51145C70.6477 5.05522 71.3034 6.22889 72.4123 6.44037C73.6491 6.67299 74.4488 5.67377 74.7153 4.32562C74.9819 2.97747 74.4754 1.6822 73.2119 1.43901" fill="#A1A1AA"/>
<path d="M82.6728 8.4655C82.2474 8.40273 81.8458 8.23132 81.5074 7.96808C81.1691 7.70483 80.9056 7.35882 80.7429 6.96404C80.5551 6.49247 80.4314 5.9982 80.375 5.49427C80.1245 5.49427 79.4634 5.44671 79.4634 5.44671C79.4634 5.44671 79.3195 6.14985 79.2448 6.6521C79.2075 6.93231 79.1062 7.37111 79.4474 7.54029C79.6233 7.6196 79.9432 7.73061 79.9432 7.73061V7.84165L77.3203 7.31296V7.20192C77.5402 7.24222 77.7665 7.23136 77.9814 7.1702C78.2426 7.04332 78.3012 6.74725 78.3705 6.50935C78.4398 6.27144 78.6051 5.55771 78.7384 4.92328C78.8504 4.3946 78.9783 3.7496 79.0583 3.27378C79.1382 2.79796 79.1489 2.57592 78.9996 2.41731C78.833 2.27866 78.6357 2.18087 78.4238 2.13183V2.0155C78.4238 2.0155 79.794 2.27986 80.4817 2.4226C81.7345 2.68695 82.6141 3.33194 82.4275 4.27301C82.3406 4.5601 82.1685 4.81456 81.9336 5.00318C81.6987 5.1918 81.4119 5.30583 81.1107 5.33038C81.2396 5.95115 81.4682 6.54737 81.7878 7.09621C81.9952 7.44578 82.258 7.75993 82.5661 8.02668C82.8403 8.23076 83.149 8.38475 83.4778 8.48137V8.58712C83.2805 8.58712 82.9446 8.51836 82.6781 8.4655H82.6728ZM80.0552 2.60237L79.5221 4.99731L80.3537 5.26694C80.6135 5.2074 80.8511 5.0767 81.0396 4.88976C81.2281 4.70282 81.3599 4.46715 81.42 4.20957C81.6332 3.21564 80.6043 2.75039 80.0125 2.62351" fill="#A1A1AA"/>
<path d="M84.9199 9.08411L84.9572 8.97311C85.1734 9.01372 85.3929 9.03495 85.613 9.03655C85.7889 9.03655 85.9489 8.91495 86.1461 8.37569C86.3434 7.83643 86.5086 7.38704 86.7218 6.74732C86.9351 6.10761 87.0737 5.72168 87.2549 5.20357C87.3402 4.93922 87.4362 4.67487 87.2549 4.46868C87.1008 4.31359 86.9203 4.18656 86.7218 4.09334L86.7591 3.9823L89.1581 4.79117L89.1208 4.90221C88.9388 4.84277 88.7468 4.81941 88.5557 4.83348C88.3211 4.87577 88.1986 5.15071 88.076 5.47849C87.8787 6.00718 87.7401 6.39313 87.5428 7.00112C87.3456 7.60911 87.1857 8.05849 87.0097 8.68234C86.8711 9.13172 86.8605 9.33262 87.0097 9.50709C87.1723 9.64039 87.3514 9.75234 87.5428 9.84017L87.5055 9.95117L84.9199 9.08411ZM88.1186 10.1415L88.1559 10.0305C88.1559 10.0305 88.5344 10.1415 88.689 9.99347C88.6742 9.81117 88.6292 9.63253 88.5557 9.46479C88.1399 8.32282 87.6601 7.27072 87.6601 7.27072C88.2998 6.89007 88.8756 6.51999 89.4674 6.08647C89.8086 5.8327 89.9738 5.67937 90.0324 5.51547C90.0911 5.35158 89.8565 5.14012 89.6273 5.03438L89.6646 4.92335L91.941 5.68466L91.9037 5.79569C91.7064 5.7534 91.1467 5.52607 90.0644 6.13406C89.6593 6.36668 88.8116 6.89536 88.5291 7.11212C88.8916 8.10605 89.2275 8.94668 89.4727 9.53352C89.5984 9.91772 89.816 10.266 90.1071 10.5486C90.2384 10.6582 90.3859 10.7473 90.5443 10.8129L90.5069 10.9187L88.1186 10.1415Z" fill="#A1A1AA"/>
</svg>
