<svg width="98" height="38" viewBox="0 0 98 38" fill="none" xmlns="http://www.w3.org/2000/svg">
<g clip-path="url(#clip0_460_9619)">
<path d="M0.562306 32.8783C0.8506 32.5902 1.26029 32.4537 1.66997 32.4537C2.48934 32.4537 2.82316 32.848 2.82316 33.6212V34.8038C2.82316 34.9706 2.83832 35.1374 2.86867 35.289H2.42864C2.39829 35.1677 2.39829 35.0009 2.39829 34.8796H2.38312C2.20104 35.1677 1.89757 35.3648 1.47271 35.3648C0.911295 35.3648 0.440918 35.0767 0.440918 34.5461C0.440918 33.6364 1.50306 33.5757 2.18587 33.5757H2.36795V33.4999C2.36795 33.0906 2.11 32.8934 1.68514 32.8934C1.39684 32.8934 1.0782 32.9996 0.865776 33.1967L0.562306 32.8783ZM1.89757 33.9548C1.30581 33.9548 0.92647 34.1215 0.92647 34.4854C0.92647 34.8341 1.18442 34.9706 1.53341 34.9706C2.06448 34.9706 2.3376 34.5915 2.35277 34.1367V33.9548H1.89757Z" fill="#A1A1AA"/>
<path d="M5.47305 34.5612C5.65513 34.7887 5.85238 34.9403 6.1862 34.9403C6.4745 34.9403 6.79314 34.819 6.79314 34.5158C6.79314 34.2277 6.50484 34.1367 6.20137 34.0761C5.6703 33.9548 5.23027 33.8486 5.23027 33.2725C5.23027 32.7418 5.74617 32.4537 6.26207 32.4537C6.65657 32.4537 7.02072 32.6054 7.20284 32.9541L6.82349 33.2119C6.7021 33.0147 6.50484 32.8783 6.23172 32.8783C5.97377 32.8783 5.68547 32.9996 5.68547 33.2573C5.68547 33.4848 6.01929 33.5909 6.38346 33.6667C6.86901 33.7576 7.29386 33.9396 7.29386 34.5006C7.29386 35.1222 6.73244 35.3648 6.1862 35.3648C5.71583 35.3648 5.38201 35.2435 5.10889 34.8493L5.47305 34.5612Z" fill="#A1A1AA"/>
<path d="M10.4102 34.6374C10.4102 34.8952 10.4405 35.1075 10.4405 35.2894H10.0004C10.0004 35.1378 9.98526 34.9862 9.98526 34.8345H9.97008C9.84869 35.1075 9.4997 35.3652 9.04451 35.3652C8.31618 35.3652 7.99756 34.9103 7.99756 34.2432V32.5299H8.45275V34.1977C8.45275 34.6526 8.64998 34.9558 9.09006 34.9558C9.68182 34.9558 9.9549 34.5313 9.9549 33.8945V32.5451H10.4102V34.6374Z" fill="#A1A1AA"/>
<path d="M11.3218 30.817H11.777V32.9245H11.7922C12.0501 32.6364 12.3839 32.4545 12.7784 32.4545C13.6433 32.4545 14.235 33.0761 14.235 33.91C14.235 34.7439 13.6282 35.3656 12.8543 35.3656C12.3536 35.3656 11.9591 35.123 11.7922 34.8045H11.777V35.2897H11.3218V30.817ZM12.7633 34.9258C13.355 34.9258 13.7496 34.471 13.7496 33.8948C13.7496 33.3187 13.3702 32.8639 12.7633 32.8639C12.1715 32.8639 11.777 33.3187 11.777 33.8948C11.777 34.4861 12.1715 34.9258 12.7633 34.9258Z" fill="#A1A1AA"/>
<path d="M15.0629 34.5612C15.245 34.7887 15.4422 34.9403 15.776 34.9403C16.0644 34.9403 16.383 34.819 16.383 34.5158C16.383 34.2277 16.0947 34.1367 15.7912 34.0761C15.2602 33.9548 14.8201 33.8486 14.8201 33.2725C14.8201 32.7418 15.336 32.4537 15.852 32.4537C16.2464 32.4537 16.6106 32.6054 16.7927 32.9541L16.4134 33.2119C16.292 33.0147 16.0947 32.8783 15.8216 32.8783C15.5636 32.8783 15.2754 32.9996 15.2754 33.2573C15.2754 33.4848 15.6092 33.5909 15.9733 33.6667C16.4589 33.7576 16.8837 33.9396 16.8837 34.5006C16.8837 35.1222 16.3223 35.3648 15.776 35.3648C15.3057 35.3648 14.9719 35.2435 14.6987 34.8493L15.0629 34.5612Z" fill="#A1A1AA"/>
<path d="M17.8607 31.1041C18.0428 31.1041 18.1945 31.2558 18.1945 31.4377C18.1945 31.6348 18.058 31.7713 17.8607 31.7713C17.6634 31.7713 17.5269 31.6348 17.5269 31.4377C17.5269 31.2558 17.6786 31.1041 17.8607 31.1041ZM17.6331 32.5142H18.0883V35.2736H17.6331V32.5142Z" fill="#A1A1AA"/>
<path d="M21.3639 34.7889C21.1818 35.1073 20.7873 35.3499 20.2866 35.3499C19.5127 35.3499 18.9058 34.7283 18.9058 33.8944C18.9058 33.0605 19.4975 32.4388 20.3624 32.4388C20.7721 32.4388 21.1059 32.6208 21.3487 32.9089H21.3639V30.8014H21.8191V35.2741H21.3639V34.7889ZM20.3928 32.8785C19.801 32.8785 19.4065 33.3334 19.4065 33.9096C19.4065 34.4857 19.7859 34.9405 20.3928 34.9405C20.9997 34.9405 21.379 34.4857 21.379 33.9096C21.3639 33.3183 20.9846 32.8785 20.3928 32.8785Z" fill="#A1A1AA"/>
<path d="M23.0052 31.1041C23.1872 31.1041 23.339 31.2558 23.339 31.4377C23.339 31.6348 23.2024 31.7713 23.0052 31.7713C22.8079 31.7713 22.6714 31.6348 22.6714 31.4377C22.6714 31.2558 22.8231 31.1041 23.0052 31.1041ZM22.7776 32.5142H23.2328V35.2736H22.7776V32.5142Z" fill="#A1A1AA"/>
<path d="M24.1717 32.8783C24.46 32.5902 24.8697 32.4537 25.2794 32.4537C26.0987 32.4537 26.4325 32.848 26.4325 33.6212V34.8038C26.4325 34.9706 26.4477 35.1374 26.4781 35.289H26.038C26.0077 35.1677 26.0077 35.0009 26.0077 34.8796H25.9925C25.8104 35.1677 25.507 35.3648 25.0821 35.3648C24.5207 35.3648 24.0503 35.0767 24.0503 34.5461C24.0503 33.6364 25.1124 33.5757 25.7952 33.5757H25.9773V33.4999C25.9773 33.0906 25.7194 32.8934 25.2945 32.8934C25.0062 32.8934 24.6876 32.9996 24.4751 33.1967L24.1717 32.8783ZM25.507 33.9548C24.9152 33.9548 24.5359 34.1215 24.5359 34.4854C24.5359 34.8341 24.7938 34.9706 25.1428 34.9706C25.6738 34.9706 25.947 34.5915 25.9622 34.1367V33.9548H25.507Z" fill="#A1A1AA"/>
<path d="M27.3364 33.1815C27.3364 32.9237 27.3062 32.7115 27.3062 32.5296H27.7462C27.7462 32.6812 27.7613 32.8328 27.7613 32.9844H27.7765C27.8979 32.7115 28.2469 32.4537 28.7021 32.4537C28.7627 32.4537 28.8235 32.4537 28.8841 32.4841L28.8538 32.9541C28.7779 32.9237 28.6869 32.9237 28.6111 32.9237C28.0496 32.9237 27.8068 33.318 27.8068 33.9548V35.3041H27.3516V33.1815H27.3364Z" fill="#A1A1AA"/>
<path d="M30.4927 35.9256C30.3105 36.3957 30.1285 36.714 29.5671 36.714C29.4305 36.714 29.2788 36.6989 29.1574 36.6382L29.2181 36.2288C29.3091 36.2592 29.4153 36.2744 29.5367 36.2744C29.8402 36.2744 29.9464 36.0925 30.0527 35.8195L30.2347 35.304L29.0815 32.5143H29.6126L30.4775 34.6824H30.4927L31.312 32.5143H31.8128L30.4927 35.9256Z" fill="#A1A1AA"/>
<path d="M35.4167 32.4537C36.2663 32.4537 36.8885 33.045 36.8885 33.9093C36.8885 34.7735 36.2663 35.3648 35.4167 35.3648C34.5669 35.3648 33.9448 34.7735 33.9448 33.9093C33.9448 33.045 34.5669 32.4537 35.4167 32.4537ZM35.4167 34.9251C36.0084 34.9251 36.4029 34.4702 36.4029 33.8941C36.4029 33.318 36.0236 32.8631 35.4167 32.8631C34.8097 32.8631 34.4304 33.318 34.4304 33.8941C34.4304 34.4854 34.8249 34.9251 35.4167 34.9251Z" fill="#A1A1AA"/>
<path d="M37.8955 32.909H37.2886V32.5148H37.8955V31.8932C37.8955 31.226 38.1383 30.7408 38.8817 30.7408C39.0031 30.7408 39.1549 30.7712 39.2307 30.8167L39.1701 31.226C39.0639 31.1958 38.9577 31.1654 38.8514 31.1654C38.3659 31.1654 38.3507 31.5141 38.3507 31.9993V32.5148H39.0183V32.909H38.3507V35.2894H37.8955V32.909Z" fill="#A1A1AA"/>
<path d="M44.3079 31.9693C44.0651 31.6357 43.6707 31.4538 43.2609 31.4538C42.3202 31.4538 41.6677 32.2725 41.6677 33.1974C41.6677 34.1678 42.3202 34.941 43.2609 34.941C43.7769 34.941 44.1713 34.7287 44.4748 34.3497L44.8542 34.6681C44.4748 35.1684 43.9437 35.3958 43.2761 35.3958C42.0774 35.3958 41.1519 34.471 41.1519 33.1974C41.1519 31.9693 42.0319 30.9989 43.2761 30.9989C43.8375 30.9989 44.3989 31.196 44.7479 31.6509L44.3079 31.9693Z" fill="#A1A1AA"/>
<path d="M45.4725 32.8783C45.7608 32.5902 46.1704 32.4537 46.5801 32.4537C47.3995 32.4537 47.7333 32.848 47.7333 33.6212V34.8038C47.7333 34.9706 47.7485 35.1374 47.7789 35.289H47.3388C47.3085 35.1677 47.3085 35.0009 47.3085 34.8796H47.2933C47.1112 35.1677 46.8077 35.3648 46.3828 35.3648C45.8215 35.3648 45.3511 35.0767 45.3511 34.5461C45.3511 33.6364 46.4132 33.5757 47.096 33.5757H47.2781V33.4999C47.2781 33.0906 47.0202 32.8934 46.5953 32.8934C46.307 32.8934 45.9884 32.9996 45.776 33.1967L45.4725 32.8783ZM46.8229 33.9548C46.2312 33.9548 45.8518 34.1215 45.8518 34.4854C45.8518 34.8341 46.1098 34.9706 46.4588 34.9706C46.9898 34.9706 47.2629 34.5915 47.2781 34.1367V33.9548H46.8229Z" fill="#A1A1AA"/>
<path d="M48.6128 30.8168H49.068V32.9242H49.0832C49.3411 32.6361 49.6749 32.4542 50.0695 32.4542C50.9344 32.4542 51.5261 33.0759 51.5261 33.9098C51.5261 34.7437 50.9192 35.3653 50.1453 35.3653C49.6446 35.3653 49.2501 35.1227 49.0832 34.8043H49.068V35.2895H48.6128V30.8168ZM50.0695 34.9256C50.6612 34.9256 51.0557 34.4707 51.0557 33.8946C51.0557 33.3185 50.6764 32.8636 50.0695 32.8636C49.4777 32.8636 49.0832 33.3185 49.0832 33.8946C49.0832 34.4859 49.4625 34.9256 50.0695 34.9256Z" fill="#A1A1AA"/>
<path d="M52.3628 30.8168H52.818V35.2895H52.3628V30.8168Z" fill="#A1A1AA"/>
<path d="M56.2632 34.7887C55.9446 35.2132 55.55 35.3648 55.0342 35.3648C54.1693 35.3648 53.6382 34.7128 53.6382 33.9093C53.6382 33.045 54.2451 32.4537 55.0645 32.4537C55.8384 32.4537 56.3846 32.9844 56.3846 33.9093V34.0609H54.1541C54.1845 34.5461 54.5638 34.9403 55.0645 34.9403C55.459 34.9403 55.7322 34.8038 55.9446 34.5158L56.2632 34.7887ZM55.8687 33.6515C55.8536 33.1815 55.55 32.8783 55.0342 32.8783C54.5183 32.8783 54.1845 33.1967 54.1237 33.6515H55.8687Z" fill="#A1A1AA"/>
<path d="M57.2358 31.1061H57.7366V34.8359H59.6484V35.2907H57.2358V31.1061Z" fill="#A1A1AA"/>
<path d="M60.1283 32.8783C60.4166 32.5902 60.8262 32.4537 61.236 32.4537C62.0553 32.4537 62.3891 32.848 62.3891 33.6212V34.8038C62.3891 34.9706 62.4043 35.1374 62.4347 35.289H61.9947C61.9643 35.1677 61.9643 35.0009 61.9643 34.8796H61.9339C61.7519 35.1677 61.4484 35.3648 61.0235 35.3648C60.4621 35.3648 59.9917 35.0767 59.9917 34.5461C59.9917 33.6364 61.0539 33.5757 61.7367 33.5757H61.9187V33.4999C61.9187 33.0906 61.6608 32.8934 61.236 32.8934C60.9476 32.8934 60.629 32.9996 60.4166 33.1967L60.1283 32.8783ZM61.4636 33.9548C60.8718 33.9548 60.4924 34.1215 60.4924 34.4854C60.4924 34.8341 60.7504 34.9706 61.0994 34.9706C61.6305 34.9706 61.9036 34.5915 61.9187 34.1367V33.9548H61.4636Z" fill="#A1A1AA"/>
<path d="M63.2573 30.8168H63.7125V32.9242H63.7277C63.9857 32.6361 64.3195 32.4542 64.714 32.4542C65.5788 32.4542 66.1706 33.0759 66.1706 33.9098C66.1706 34.7437 65.5637 35.3653 64.7898 35.3653C64.2891 35.3653 63.8946 35.1227 63.7277 34.8043H63.7125V35.2895H63.2573V30.8168ZM64.6988 34.9256C65.2906 34.9256 65.685 34.4707 65.685 33.8946C65.685 33.3185 65.3058 32.8636 64.6988 32.8636C64.107 32.8636 63.7125 33.3185 63.7125 33.8946C63.7277 34.4859 64.107 34.9256 64.6988 34.9256Z" fill="#A1A1AA"/>
<path d="M67.0082 34.5612C67.1903 34.7887 67.3876 34.9403 67.7214 34.9403C68.0097 34.9403 68.3283 34.819 68.3283 34.5158C68.3283 34.2277 68.0401 34.1367 67.7365 34.0761C67.2055 33.9548 66.7654 33.8486 66.7654 33.2725C66.7654 32.7418 67.2814 32.4537 67.7973 32.4537C68.1917 32.4537 68.5557 32.6054 68.7383 32.9541L68.3587 33.2119C68.2373 33.0147 68.0401 32.8783 67.7669 32.8783C67.509 32.8783 67.2206 32.9996 67.2206 33.2573C67.2206 33.4848 67.5545 33.5909 67.9187 33.6667C68.4042 33.7576 68.8293 33.9396 68.8293 34.5006C68.8293 35.1222 68.2677 35.3648 67.7214 35.3648C67.251 35.3648 66.9172 35.2435 66.644 34.8493L67.0082 34.5612Z" fill="#A1A1AA"/>
<path d="M70.5195 30.9069C71.0501 30.9069 71.4906 31.3463 71.4906 31.8766C71.4906 32.4069 71.0501 32.8464 70.5195 32.8464C69.9881 32.8464 69.5483 32.4069 69.5483 31.8766C69.5483 31.3463 69.973 30.9069 70.5195 30.9069ZM70.5195 32.6797C70.9592 32.6797 71.3237 32.316 71.3237 31.8766C71.3237 31.4372 70.9592 31.0735 70.5195 31.0735C70.079 31.0735 69.7152 31.4372 69.7152 31.8766C69.7152 32.316 70.079 32.6797 70.5195 32.6797ZM70.1399 31.3159H70.5646C70.8381 31.3159 70.9592 31.4372 70.9592 31.6494C70.9592 31.8463 70.8381 31.9372 70.6863 31.9524L70.9742 32.4221H70.7622L70.4887 31.9675H70.3369V32.4221H70.1399V31.3159ZM70.3526 31.8008H70.5037C70.6255 31.8008 70.7622 31.7857 70.7622 31.6494C70.7622 31.4978 70.6255 31.4978 70.5037 31.4978H70.3526V31.8008Z" fill="#A1A1AA"/>
<path d="M95.2069 23.1139C95.9503 23.1139 96.5576 23.7204 96.5576 24.4633C96.5576 25.2063 95.9503 25.8127 95.2069 25.8127C94.4635 25.8127 93.8569 25.2063 93.8569 24.4633C93.8569 23.7204 94.4635 23.1139 95.2069 23.1139ZM95.2069 25.5853C95.8292 25.5853 96.3148 25.085 96.3148 24.4785C96.3148 23.8568 95.8142 23.3717 95.2069 23.3717C94.5853 23.3717 94.0997 23.872 94.0997 24.4785C94.0997 25.085 94.5853 25.5853 95.2069 25.5853ZM94.6913 23.69H95.2828C95.6473 23.69 95.8293 23.8568 95.8293 24.1601C95.8293 24.433 95.6624 24.5543 95.4654 24.5846L95.8751 25.2365H95.5714L95.1919 24.5998H94.9799V25.2365H94.6913V23.69ZM94.9641 24.3572H95.1768C95.3587 24.3572 95.5407 24.342 95.5407 24.1449C95.5407 23.9478 95.3437 23.9326 95.1768 23.9326H94.9641V24.3572Z" fill="#A1A1AA"/>
<path d="M1.05986 17.8992C1.34815 19.2182 1.59093 20.4615 2.48616 21.7806C3.8366 23.7668 6.08227 24.9191 8.19137 24.9191C10.3005 24.9191 13.4262 23.5242 13.4262 19.9308C13.4262 18.7179 13.0014 17.1563 11.3627 15.9433C10.3612 15.2307 9.72388 15.0185 6.70439 14.0178C4.77736 13.381 0.786737 12.0316 0.786737 7.2253C0.786737 3.20745 3.77591 0.0689697 8.19137 0.0689697C10.5129 0.0689697 11.9241 0.887706 13.2442 1.63063L14.7008 0.52382L15.5202 7.8166L14.7008 7.99858C14.2456 6.25497 12.8496 1.26675 8.29757 1.26675C5.23256 1.26675 3.66969 3.35907 3.66969 5.49687C3.66969 6.66433 4.06421 7.84694 4.91392 8.74152C5.94572 9.84828 7.15959 10.2425 9.75424 11.0612C12.2427 11.8496 16.4913 13.1535 16.4913 18.5056C16.4913 23.13 12.6828 26.0866 8.11552 26.0866C5.02014 26.0866 3.41175 24.9797 2.37995 24.3126L0.422573 25.6014C0.392227 21.9322 0.346706 21.0832 0.134277 17.9902L1.05986 17.8992Z" fill="#A1A1AA"/>
<path d="M43.9071 20.1439C41.449 24.1011 37.9894 26.1935 33.3008 26.1935C26.2452 26.1935 20.5854 21.1446 20.5854 13.2756C20.5854 5.01246 26.6397 -0.0970459 33.3312 -0.0970459C37.5039 -0.0970459 39.9923 1.72237 41.449 2.81401L43.2698 1.28268L43.376 8.72706L42.6325 8.80291C42.238 7.55962 41.889 6.45286 40.9179 5.07311C39.0667 2.29851 36.4721 1.1159 33.9077 1.1159C29.5226 1.1159 24.8947 4.6031 24.8947 11.8959C24.8947 18.1273 28.3846 24.3892 34.7575 24.3892C39.4613 24.3892 41.6614 21.2203 42.8753 19.5071L43.9071 20.1439Z" fill="#A1A1AA"/>
<path d="M45.4761 7.22471C46.5838 4.23785 46.8265 3.49492 47.7217 0.432251H68.4184C69.3439 3.60105 69.5867 4.31366 70.6638 7.22471L69.8753 7.57343C68.5246 5.75402 66.2789 2.76716 65.2471 2.16069C64.2912 1.63003 63.5325 1.63003 59.8757 1.66035V19.2783C59.8757 20.5216 59.9061 22.4168 60.0882 23.0536C60.4068 24.0846 61.1958 24.221 63.8663 24.4484V25.5856C61.9393 25.5553 60.0578 25.4795 58.1308 25.4795C56.1734 25.4795 54.216 25.5553 52.2586 25.5856V24.4484C55.8244 24.3727 55.9913 23.7056 56.1431 22.9475C56.3251 22.1287 56.3555 20.4154 56.3555 19.2783V1.67551H53.3663C52.0766 1.70584 51.2268 1.75132 50.1192 2.78232C49.5881 3.23717 49.4819 3.41912 46.2803 7.5886L45.4761 7.22471Z" fill="#A1A1AA"/>
<path d="M72.3921 0.463501H90.8733C92.0414 3.26842 92.3751 4.02652 93.6499 6.6495L92.9674 7.14986C90.0841 3.95071 90.0841 3.95071 89.4467 3.37456C87.9142 1.94935 86.7461 1.66128 82.6038 1.60063H78.9314V11.8196H82.452C85.8051 11.85 86.4124 11.289 87.2316 7.61987H88.1569C88.081 9.28766 88.0509 11.0009 88.0509 12.7142C88.0509 14.3517 88.081 15.9891 88.1569 17.5963H87.2316C86.4124 13.5329 85.6232 13.3207 81.6778 13.3207H78.9314V19.3702C78.9621 24.2523 78.9621 24.3888 83.8478 24.4645H85.7292C88.6883 24.4342 89.2949 24.4342 93.6348 18.415L94.424 18.8395C93.4221 21.8567 93.2101 22.6148 92.3902 25.6017H72.3921V24.4645C75.0927 24.2523 75.2446 23.57 75.2747 21.9325C75.3506 20.2193 75.3813 18.5211 75.3813 14.9581V8.27179C75.3813 7.16503 75.3813 3.54134 75.0927 2.85906C74.7741 1.93419 74.0915 1.82806 72.3921 1.61579V0.463501Z" fill="#A1A1AA"/>
</g>
<defs>
<clipPath id="clip0_460_9619">
<rect width="96.4274" height="37.5845" fill="white" transform="translate(0.791992 0.207886)"/>
</clipPath>
</defs>
</svg>
