<svg width="145" height="24" viewBox="0 0 145 24" fill="none" xmlns="http://www.w3.org/2000/svg">
<path d="M116.447 0.913904V9.78324H128.321C128.321 9.81374 128.311 0.911869 128.321 0.913904C128.311 0.911869 134.142 0.913904 134.203 0.913904C134.203 0.913904 134.223 23.0644 134.203 23.0898H128.321V13.3287C128.321 13.3592 116.447 13.3287 116.447 13.3287C116.457 13.3694 116.447 23.0969 116.447 23.0898H110.575C110.575 23.0898 110.606 0.913904 110.575 0.913904H116.447Z" fill="#A1A1AA"/>
<path d="M60.6514 0.913908V4.68411H51.6561V23.0898H45.7848V4.68411H36.7896C36.7896 4.68411 36.7997 0.922041 36.7896 0.913908C36.7997 0.922041 60.6514 0.913908 60.6514 0.913908Z" fill="#A1A1AA"/>
<path d="M69.516 4.68424L65.4254 14.7737H73.6066L69.516 4.68424ZM83.4871 23.0899H76.9442C76.9543 23.0899 75.021 18.3243 75.021 18.3243H64.0008C64.0008 18.3243 62.1081 23.097 62.0878 23.0899C62.0878 23.097 55.5347 23.0899 55.5347 23.0899L65.9138 0.91404C65.9138 0.924208 73.1181 0.91404 73.1181 0.91404L83.4871 23.0899Z" fill="#A1A1AA"/>
<path d="M138.864 23.0896H144.745V0.913696H138.864V23.0896Z" fill="#A1A1AA"/>
<path d="M6.40103 0.913843C6.40103 0.913843 6.39086 9.84825 6.40103 9.78318H18.276C18.276 9.81368 18.2556 0.911808 18.276 0.913843C18.2556 0.911808 24.0964 0.913843 24.1575 0.913843C24.1575 0.913843 24.1778 23.0643 24.1575 23.0897H18.276V13.3287C18.276 13.3592 6.40103 13.3287 6.40103 13.3287C6.40103 13.3693 6.39086 23.0968 6.40103 23.0897H0.519531C0.519531 23.0897 0.550058 0.913843 0.519531 0.913843H6.40103Z" fill="#A1A1AA"/>
<path d="M28.8135 23.0896H34.6848V0.913696H28.8135V23.0896Z" fill="#A1A1AA"/>
<path d="M83.2937 16.9525C82.7747 15.4568 82.5 13.8808 82.5 12.2214C82.5 9.89201 82.907 7.63578 84.0263 5.75678C85.1762 3.82796 86.9467 2.3394 89.0836 1.54835C91.1086 0.783731 93.2963 0.363804 95.596 0.363804C98.2315 0.363804 100.725 0.940315 103.014 1.92455C105.131 2.8366 106.728 4.74306 107.206 7.04808C107.308 7.5036 107.379 7.98047 107.41 8.45632H101.243C101.223 7.85846 101.132 7.27686 100.928 6.75119C100.46 5.52496 99.4322 4.56614 98.1704 4.18789C97.3564 3.93269 96.4813 3.8005 95.596 3.8005C94.5784 3.8005 93.5914 3.97234 92.6858 4.29974C91.1798 4.82846 90.0096 6.04961 89.4703 7.55546C88.9513 9.00945 88.6664 10.5844 88.6664 12.2214C88.6664 13.5799 88.8903 14.8864 89.2261 16.1157C89.6738 17.7293 90.8949 19.0298 92.4416 19.6225C93.4184 19.9886 94.4869 20.2031 95.596 20.2031C96.5423 20.2031 97.448 20.0608 98.3129 19.7842C99.4627 19.4141 100.399 18.5671 100.887 17.4782C101.203 16.7552 101.366 15.954 101.366 15.0979H107.563C107.522 15.8229 107.42 16.5366 107.267 17.2036C106.728 19.3989 105.192 21.2433 103.156 22.0964C100.826 23.0694 98.2824 23.6368 95.596 23.6368C93.5202 23.6368 91.5054 23.3114 89.6331 22.7217C86.7636 21.8208 84.2807 19.7568 83.2937 16.9525Z" fill="#A1A1AA"/>
</svg>
