<svg width="632" height="77" viewBox="0 0 632 77" fill="none" xmlns="http://www.w3.org/2000/svg">
<path fill-rule="evenodd" clip-rule="evenodd" d="M628.411 0.732785C623.159 1.94772 615.989 3.33519 603.565 5.54064C576.204 10.3978 558.933 14.683 508.003 29.252C473.365 39.1607 462.498 41.9895 450.284 44.2761C444.911 45.2822 437.56 45.6078 434.856 44.9593L433.379 44.6052L433.65 43.5683C434.248 41.2853 436.641 38.4094 443.496 31.7346C454.42 21.099 457.191 16.9914 456.674 12.1995C455.403 0.43064 429.783 2.64289 380.498 18.7773C376.908 19.9524 366.072 23.747 356.416 27.2099C318.65 40.7539 311.282 43.1205 306.752 43.1604L304.458 43.1805L304.546 42.1648C304.686 40.5648 306.238 38.0718 311.31 31.3029C321.623 17.5396 323.016 11.8829 317.084 7.86455C311.5 4.0829 293.819 5.59472 271.967 11.722C255.547 16.326 221.582 28.1918 175.642 45.3728C132.98 61.328 126.379 63.5875 124.842 62.7638C124.32 62.4844 126.63 59.898 136.854 49.311C156.611 28.8526 159.897 24.4128 159.944 18.1111C160.031 6.54802 146.039 8.01082 104.296 23.9289C76.8488 34.3955 52.3546 46.1153 20.3064 64.1158C3.39013 73.6173 0 75.685 0 76.5019C0 77.1235 0.999952 77.18 1.33365 76.5772C1.59931 76.0984 7.43658 72.9355 15.2898 69.0159C18.128 67.5993 23.5463 64.7911 27.3305 62.7754C45.6905 52.9964 78.02 37.686 93.0766 31.6396C121.079 20.3949 140.746 14.096 149.267 13.6432C154.138 13.3844 154.986 14.1326 154.701 18.4395C154.336 23.9327 150.079 29.5813 132.095 48.4353C118.252 62.9482 117.427 64.3247 121.848 65.5265C127.442 67.0469 134.855 64.8278 180.037 48.1095C262.494 17.5987 293.722 8.33638 309.585 9.6851C317.13 10.3266 315.944 16.9837 305.848 30.6653C298.003 41.2952 297.171 44.1824 301.475 45.8287C307.46 48.1173 315.328 46.0654 361.604 30.149C401.96 16.2684 424.535 10.2128 439.164 9.34398C447.7 8.8369 449.429 9.65927 449.033 14.0371C448.718 17.5239 446.308 20.6734 437.118 29.6058C423.392 42.9482 422.543 47.6484 433.556 49.3275C445.336 51.1237 457.409 48.622 511.826 33.1092C540.882 24.8264 550.922 22.1014 572.703 16.5865C580.432 14.6298 591.268 11.7055 596.784 10.0884C602.301 8.47103 611.544 5.82111 617.326 4.19959C623.107 2.57807 628.869 0.961802 630.131 0.607983C633.187 -0.249195 632.413 -0.193143 628.411 0.732785Z" fill="white"/>
</svg>
