<svg width="89" height="28" viewBox="0 0 89 28" fill="none" xmlns="http://www.w3.org/2000/svg">
<path fill-rule="evenodd" clip-rule="evenodd" d="M47.8329 7.06705H41.5717L39.6496 10.6329L37.8367 7.06705H31.4938L36.2448 13.8721L31.0819 21.3304H37.3987L39.4849 17.2474L41.5168 21.3304H47.8872L42.9172 13.8448L47.8329 7.06705ZM22.6522 10.769C22.6522 10.0613 23.2837 9.76191 24.2722 9.76191C24.7109 9.76191 25.1234 9.87079 25.4248 10.1151C25.7275 10.3614 25.9197 10.6874 25.9747 11.1501H31.165C30.8355 7.36654 27.1554 6.65814 24.0251 6.65814C21.0315 6.65814 17.2147 7.7204 17.2147 11.3686C17.2147 16.8936 26.0296 15.0698 26.0296 17.357C26.0296 18.3655 25.0953 18.6363 24.2173 18.6363C23.6681 18.6363 23.1739 18.473 22.8162 18.2008C22.4318 17.9014 22.2122 17.4652 22.2122 16.8936H16.7754C17.0774 20.7316 20.7019 21.7394 23.997 21.7394C29.2697 21.7394 31.7416 19.7258 31.7416 16.7575C31.7416 11.4223 22.6522 12.7561 22.6522 10.769ZM72.069 5.72178V5.71362C72.069 5.55636 71.9529 5.46991 71.7571 5.46991H71.3647V5.96549H71.7571C71.9529 5.96549 72.069 5.87019 72.069 5.72178ZM72.0088 6.17551L72.4337 6.76551H72.0754L71.6923 6.22519H71.6841H71.3628V6.76551H71.0635V5.20171H71.7671C71.9751 5.20171 72.1371 5.26432 72.2456 5.37116C72.3294 5.44942 72.3753 5.56102 72.3753 5.69712V5.70529C72.3753 5.95707 72.225 6.11427 72.0088 6.17551ZM66.4725 6.66153C64.3904 6.66153 63.3072 7.55707 62.0716 9.27193C61.3844 7.74693 59.9435 6.66016 57.5622 6.66016C55.5028 6.66016 54.204 8.10215 53.4901 9.18959V7.0671H48.2442V21.3304H53.9555V14.2811C53.9555 12.5662 53.996 11.0848 55.5646 11.1243C57.0865 11.1644 57.2107 11.9667 57.2107 14.0633V21.3304H62.9228V14.2811C62.9228 12.5662 62.9111 11.1317 64.516 11.127C66.0263 11.1236 66.1642 11.9667 66.1642 14.0633V21.3304H71.8749V12.8929C71.8749 8.99973 70.0935 6.66016 66.4725 6.66153ZM72.9925 6.01845C72.9925 5.28351 72.4132 4.70712 71.6738 4.70712C70.929 4.70712 70.3462 5.28691 70.3462 6.0273V6.03546C70.3462 6.77041 70.9256 7.34679 71.6656 7.34679C72.4097 7.34679 72.9925 6.76768 72.9925 6.0273V6.01845ZM73.2016 6.01846V6.0273C73.2016 6.86432 72.5131 7.54618 71.666 7.54618C70.823 7.54618 70.1379 6.8684 70.1379 6.03547V6.0273C70.1379 5.18961 70.8271 4.50842 71.6742 4.50842C72.5165 4.50842 73.2016 5.18552 73.2016 6.01846Z" fill="#A1A1AA"/>
<mask id="mask0_460_9541" style="mask-type:luminance" maskUnits="userSpaceOnUse" x="82" y="1" width="7" height="27">
<path fill-rule="evenodd" clip-rule="evenodd" d="M82.8389 1.17828H88.9303V27.0395H82.8389V1.17828Z" fill="white"/>
</mask>
<g mask="url(#mask0_460_9541)">
<path fill-rule="evenodd" clip-rule="evenodd" d="M85.1194 1.71873C84.7335 1.15254 83.9609 1.00705 83.395 1.39617C82.8304 1.78324 82.686 2.56011 83.074 3.12629C85.283 6.36349 86.4511 10.1559 86.4511 14.0958C86.4511 18.0461 85.2761 21.8481 83.0576 25.0887C82.6689 25.6556 82.8119 26.4297 83.3779 26.8182C83.9404 27.2114 84.7143 27.0666 85.1023 26.499C87.6062 22.8405 88.9304 18.5519 88.9304 14.0958C88.9304 9.65216 87.6131 5.37181 85.1194 1.71873Z" fill="#A1A1AA"/>
</g>
<path fill-rule="evenodd" clip-rule="evenodd" d="M7.47731 14.1669C7.47731 11.379 8.32345 8.73585 9.92539 6.52177C10.3244 5.96946 10.2241 5.1839 9.6972 4.7624C9.17158 4.34575 8.42106 4.45164 8.0214 5.00464C6.10158 7.65684 5.08594 10.8253 5.08594 14.1669C5.08594 17.4787 6.08443 20.6257 7.97523 23.2655C8.3716 23.8185 9.12146 23.9313 9.64972 23.5153C10.1773 23.0987 10.2848 22.3117 9.88714 21.7587C8.31158 19.5557 7.47731 16.9305 7.47731 14.1669Z" fill="#A1A1AA"/>
<path fill-rule="evenodd" clip-rule="evenodd" d="M12.7778 14.0932C12.7778 12.4393 13.3354 10.8782 14.3915 9.57965C14.8347 9.03389 14.7332 8.24365 14.1677 7.81702C13.5987 7.38831 12.78 7.48389 12.3354 8.03241C10.9159 9.77773 10.167 11.8721 10.167 14.0932C10.167 16.3296 10.9677 18.5175 12.4203 20.2558C12.8721 20.7968 13.6951 20.8833 14.2555 20.4491C14.816 20.0141 14.9066 19.2239 14.4526 18.6816C13.357 17.3692 12.7778 15.7817 12.7778 14.0932Z" fill="#A1A1AA"/>
<path fill-rule="evenodd" clip-rule="evenodd" d="M74.7963 7.81702C74.2279 8.24365 74.1257 9.03389 74.5718 9.57965C75.628 10.8782 76.1857 12.4393 76.1857 14.0932C76.1857 15.7817 75.6057 17.3692 74.5092 18.6816C74.0552 19.2239 74.1473 20.0141 74.7071 20.4491C75.2697 20.8833 76.0914 20.7968 76.5433 20.2558C77.9952 18.5175 78.7953 16.3289 78.7953 14.0932C78.7953 11.8721 78.0463 9.77703 76.6289 8.03241C76.1828 7.48389 75.3625 7.38831 74.7963 7.81702Z" fill="#A1A1AA"/>
<path fill-rule="evenodd" clip-rule="evenodd" d="M2.48635 13.8712C2.48635 9.93408 3.65423 6.14241 5.86607 2.90839C6.25285 2.34115 6.10841 1.56608 5.54159 1.17923C4.9775 0.789636 4.20394 0.935733 3.81647 1.50092C1.31916 5.15266 0 9.42925 0 13.8712C0 18.3254 1.32601 22.6116 3.83496 26.2681C4.22242 26.834 4.99667 26.9781 5.56144 26.5871C6.12689 26.1982 6.26997 25.4252 5.88182 24.8579C3.65834 21.6191 2.48635 17.8185 2.48635 13.8712Z" fill="#A1A1AA"/>
<path fill-rule="evenodd" clip-rule="evenodd" d="M80.9436 5.00527C80.5446 4.4516 79.7942 4.34571 79.268 4.76235C78.7418 5.18452 78.6383 5.97005 79.0372 6.52234C80.6409 8.73635 81.4862 11.3788 81.4862 14.1672C81.4862 16.9307 80.6554 19.5559 79.0775 21.7588C78.6805 22.3111 78.786 23.0987 79.3142 23.5153C79.8424 23.9313 80.5921 23.8185 80.9897 23.2655C82.8796 20.6251 83.8779 17.4782 83.8779 14.1672C83.8779 10.8258 82.8644 7.65738 80.9436 5.00527Z" fill="#A1A1AA"/>
</svg>
