<svg width="111" height="36" viewBox="0 0 111 36" fill="none" xmlns="http://www.w3.org/2000/svg">
<path d="M25.6187 29.8768L28.4061 32.1155L31.3625 29.6004L30.179 28.4947V10.8214C30.179 10.8214 29.9049 10.8713 29.9003 10.903C29.7449 11.7731 27.7526 13.8486 26.4503 14.1975V29.2062C26.4503 29.2062 25.9202 29.6004 25.6187 29.8768Z" fill="#A1A1AA"/>
<path d="M32.0134 20.261H32.1596L33.8641 21.7066L33.96 30.8378C33.96 30.8378 34.417 35.9404 29.2397 34.8302L29.2763 35.2833C30.0302 35.654 30.8667 35.8286 31.7073 35.7908C34.6318 35.6141 37.1359 34.2229 37.3415 31.6082C37.6933 27.0766 37.506 20.0934 37.506 20.0934L34.3576 17.8276L30.1628 21.1583V21.7565C30.1628 21.7565 32.0545 20.2203 32.0134 20.261Z" fill="#A1A1AA"/>
<path d="M22.9685 22.0515C22.9531 22.0825 22.9394 22.1143 22.9274 22.1467C22.3325 23.7883 21.3279 25.2538 20.0075 26.4064C18.3145 27.8603 16.1267 28.6203 13.8889 28.5317C9.6895 28.3278 6.91123 25.5227 6.91123 21.408C6.95992 20.1482 7.26895 18.9118 7.81916 17.7753C8.36937 16.6388 9.14905 15.6264 10.1099 14.8009C9.80563 14.7487 9.49347 14.7642 9.19598 14.8463C5.90593 16.3145 3.64404 19.3779 3.64404 22.9533C3.64404 27.9381 8.09017 31.9848 13.5736 31.9848C17.5948 31.9848 21.063 29.8051 22.6212 26.6737C23.2564 25.0378 23.0005 22.3687 22.9685 22.0515Z" fill="#A1A1AA"/>
<path d="M20.1755 15.3716H19.7925V26.9227H20.1755V15.3716Z" fill="#A1A1AA"/>
<path d="M13.3616 13.808L13.2565 26.7095L11.0723 28.069L11.4332 28.4632L17.2822 24.7519V17.5919C17.2822 17.5919 17.2411 15.3261 17.4878 15.2808" fill="#A1A1AA"/>
<path d="M11.8325 14.1656C13.1576 14.5372 13.5232 14.8997 14.6473 15.0719C16.442 15.3075 18.252 15.4105 20.0622 15.3801C24.0239 15.3801 25.6507 11.6234 25.6507 11.6234C24.3392 12.1672 19.7925 12.5614 16.763 11.9179C14.6016 11.4648 13.674 11.3197 12.1934 11.0116C3.32859 9.2488 3.15039 16.2229 3.15039 16.2229C4.06429 15.8468 5.77786 12.4617 11.8325 14.1656Z" fill="#A1A1AA"/>
<path d="M19.3892 20.7913L19.9558 20.1663L20.5544 20.8094L20.0243 21.4887L19.3892 20.7913Z" fill="#A1A1AA"/>
<path d="M51.077 27.0361L50.7754 26.7325L47.2797 29.524L44.2776 27.3715L44.2502 26.1343L50.1677 21.6027L47.7321 17.4291C46.4724 18.1742 45.1659 18.8387 43.8206 19.4185C43.1489 19.6632 40.5763 20.6783 40.5763 20.6783L40.622 28.4681L38.7119 29.9681L38.9541 30.3261L40.6768 29.0119L44.8579 32.0209L51.077 27.0361ZM44.2227 19.7584L45.1869 19.3052L47.4488 23.1571L44.209 25.6721L44.2227 19.7584Z" fill="#A1A1AA"/>
<path d="M80.1791 21.4523L79.6398 22.0006L79.3154 21.7061L80.1927 20.827L81.2438 19.762L82.2216 18.7651C83.8438 19.9433 85.3517 20.9855 85.3517 20.9855V28.0367L87.5268 29.6228C87.5268 29.6228 89.0256 28.1319 89.0759 28.0458C89.0759 26.9537 89.0759 22.5172 89.0759 22.5172L87.5588 21.3526L86.9282 21.9009L86.6221 21.62L89.4872 18.7651L92.4208 21.0309L93.3713 20.0928L93.65 20.4236L92.7086 21.3798V29.1515L93.4718 29.6454L94.3537 28.789L94.6461 29.0835L91.4109 32.3236L89.0896 30.6605V28.6802L85.5665 32.2602L81.8332 29.6454L80.8645 30.5518L80.5537 30.2527L81.7372 29.0745V22.5263L80.2065 21.4342" fill="#A1A1AA"/>
<path d="M80.1791 21.4523L79.6398 22.0006L79.3154 21.7061L80.1927 20.827L81.2438 19.762L82.2216 18.7651C83.8438 19.9433 85.3517 20.9855 85.3517 20.9855V28.0367L87.5268 29.6228C87.5268 29.6228 89.0256 28.1319 89.0759 28.0458C89.0759 26.9537 89.0759 22.5172 89.0759 22.5172L87.5588 21.3526L86.9282 21.9009L86.6221 21.62L89.4872 18.7651L92.4208 21.0309L93.3713 20.0928L93.65 20.4236L92.7086 21.3798V29.1515L93.4718 29.6454L94.3537 28.789L94.6461 29.0835L91.4109 32.3236L89.0896 30.6605V28.6802L85.5665 32.2602L81.8332 29.6454L80.8645 30.5518L80.5537 30.2527L81.7372 29.0745V22.5263L80.2065 21.4342" fill="#A1A1AA"/>
<path d="M101.228 20.8356V22.4987L104.614 18.6423L108.023 21.0486L108.832 20.2102L109.143 20.4957L109.015 20.5728L108.188 21.5244V28.7342L109.293 29.5907L110.029 28.7614L110.335 29.065L107.456 32.3096L104.797 30.2115V22.9201L102.704 21.47L101.215 23.1694V29.6088L101.978 30.4381C101.946 30.4381 101.978 30.4879 101.946 30.506C101.002 31.0558 100.108 31.685 99.2725 32.3867C99.2725 32.3867 97.7462 31.0816 96.9877 30.5468L97.6 29.7493V22.3492L96.1652 21.3205L95.6351 21.8688L95.3198 21.5879L96.8872 19.8341L97.993 18.529L101.228 20.8356Z" fill="#A1A1AA"/>
<path d="M75.5812 20.8182C75.0828 20.5638 74.5549 20.3705 74.0093 20.2427C74.1647 20.0569 74.9963 19.069 75.2248 18.8062L75.7274 18.3258C75.7206 18.383 75.7206 18.4408 75.7274 18.498C75.7255 18.6312 75.7532 18.7632 75.8085 18.8845C75.8638 19.0059 75.9454 19.1137 76.0475 19.2002C76.1496 19.2867 76.2696 19.3499 76.3991 19.3852C76.5286 19.4205 76.6644 19.427 76.7967 19.4044C77.0822 19.3316 77.3336 19.1634 77.5084 18.9281C77.6833 18.6928 77.7709 18.4048 77.7563 18.1129C77.7583 17.9797 77.7306 17.8477 77.6753 17.7264C77.62 17.605 77.5384 17.4972 77.4363 17.4107C77.3342 17.3242 77.2141 17.261 77.0846 17.2257C76.9551 17.1904 76.8194 17.1839 76.6871 17.2065H76.6368L76.5637 17.2337L76.4723 17.27C75.7457 17.5781 75.1014 18.3621 74.5896 19.0192C74.1327 19.5766 73.7215 20.0569 73.6438 20.1385C72.5151 19.9119 70.902 19.7306 69.7322 19.6173C71.8845 17.1975 73.726 15.2172 76.3352 12.3215L76.0839 12.0496C75.6269 12.5662 75.5447 12.6251 74.9232 13.2731C73.6915 12.5399 72.3471 12.0118 70.9432 11.7097C69.3846 11.3881 67.7823 11.3314 66.2046 11.542C64.7436 11.8202 63.3993 12.5238 62.3434 13.5631C61.5709 14.2849 60.9686 15.1669 60.5795 16.1461C60.2255 16.9752 60.1254 17.8893 60.2917 18.7745C60.4242 19.4499 60.7402 20.0767 61.2056 20.5871C61.3838 20.8454 62.3571 21.9194 66.4422 22.6943C65.9853 23.1973 65.6654 23.5644 65.1582 24.0855C64.9247 24.3609 64.6645 24.6128 64.3814 24.8378C64.3912 24.8035 64.3988 24.7687 64.4042 24.7335C64.4356 24.6018 64.4369 24.4648 64.4079 24.3325C64.3789 24.2002 64.3204 24.076 64.2367 23.9691C64.153 23.8622 64.0462 23.7752 63.9242 23.7146C63.8021 23.654 63.6679 23.6212 63.5314 23.6188C63.2372 23.6397 62.9599 23.7631 62.7483 23.967C62.5368 24.171 62.4047 24.4424 62.3753 24.7335C62.3447 24.865 62.3441 25.0015 62.3734 25.1332C62.4028 25.2649 62.4614 25.3885 62.545 25.4949C62.6287 25.6013 62.7352 25.6878 62.8568 25.7481C62.9785 25.8085 63.1121 25.8412 63.2481 25.8438C63.3347 25.8432 63.4208 25.831 63.504 25.8075H63.568C64.0706 25.6263 64.4819 25.4133 65.638 24.1127C65.8802 23.8453 66.4605 23.229 66.8763 22.7895C67.5252 22.9028 68.2472 23.0115 69.056 23.1067C69.8648 23.2018 70.5045 23.3061 71.0803 23.4284C70.1664 24.5795 69.385 25.5628 68.2563 26.9042C65.2202 26.5624 62.1506 27.134 59.4463 28.5446C57.8424 29.4147 56.2019 30.6337 55.6399 32.5687C55.4639 33.1201 55.4638 33.712 55.6396 34.2635C55.8154 34.8151 56.1587 35.2993 56.6223 35.6502C57.7602 36.4115 59.2224 35.777 60.479 35.197C62.3388 34.2907 63.7599 32.9085 65.0942 31.4675C65.6106 30.9056 66.6433 29.6548 66.6844 29.5914C67.4819 29.786 68.2568 30.0625 68.9966 30.4162C69.7892 30.8053 70.5318 31.2876 71.2082 31.8527C71.2493 31.8844 72.0581 32.6865 72.0399 32.7092L72.474 32.3285C75.0237 30.2123 77.5004 27.7063 77.9117 24.4843C78.0853 22.6989 76.7373 21.353 75.6269 20.859L75.5812 20.8182ZM62.3753 18.5207C61.6945 18.1128 61.1324 17.6144 61.1736 16.8395C61.1863 16.2691 61.3578 15.7133 61.6691 15.2335C61.9803 14.7536 62.4193 14.3685 62.9374 14.1205C65.2999 13.0239 67.6668 13.6175 69.5129 14.3879C70.5292 14.836 71.4867 15.4051 72.3643 16.0827C70.9569 17.7186 70.6096 18.1083 69.2433 19.6491C66.2823 19.4451 63.0562 19.069 62.3891 18.5343L62.3753 18.5207ZM65.6243 30.2258C64.3826 31.7778 62.8743 33.1002 61.169 34.1321C60.2078 34.8251 59.049 35.1966 57.8607 35.1925C57.5124 35.1966 57.1691 35.1107 56.8645 34.9432C56.5615 34.7059 56.3478 34.3745 56.2574 34.0023C56.1671 33.63 56.2055 33.2385 56.3665 32.8904C57.189 30.9917 59.8758 29.6775 62.7638 29.3014C63.9164 29.1454 65.0887 29.2162 66.2137 29.5098L65.6197 30.2258H65.6243ZM68.7224 27.0537C69.6729 25.8166 70.5822 24.7335 71.4916 23.5689L71.985 23.6867C72.1955 23.7407 72.403 23.8057 72.6065 23.8816C73.3712 24.1454 74.0897 24.5261 74.7359 25.01C75.0769 25.2458 75.3603 25.5547 75.565 25.9136C75.7696 26.2725 75.8904 26.6724 75.9185 27.0839C75.9466 27.4953 75.8812 27.9077 75.7271 28.2907C75.573 28.6737 75.3343 29.0176 75.0283 29.2969C75.0283 29.2969 74.9324 29.4011 74.8593 29.4691L74.7405 29.5461C72.9141 28.3405 70.8709 27.4944 68.7224 27.0537Z" fill="#A1A1AA"/>
<path d="M43.612 5.76447L40.0386 6.55296V6.45779C40.2592 6.40378 40.4661 6.30502 40.6464 6.16776C40.7031 6.06555 40.738 5.95289 40.749 5.83674C40.76 5.72059 40.7469 5.60345 40.7103 5.49255C40.6692 5.20253 40.5732 4.70859 40.4499 4.16026C40.3265 3.61194 40.2762 3.36269 40.1254 2.76905C40.0158 2.31589 39.9609 2.18901 39.7781 2.12104C39.5773 2.08402 39.3713 2.08402 39.1704 2.12104V2.02136L41.9121 1.42772C42.3691 1.32349 42.5153 1.28724 42.5656 1.14676H42.6387L42.8169 2.21621H42.73C42.73 2.21621 42.6295 1.84462 42.4467 1.76305C42.2268 1.70394 41.9949 1.70394 41.775 1.76305C41.6151 1.79024 41.3957 1.83556 41.2038 1.87634L40.7469 1.98056C40.852 2.55154 40.9891 3.21768 41.1079 3.75694L42.232 3.48959C42.3505 3.47162 42.4572 3.40814 42.529 3.31285C42.594 3.17109 42.6162 3.0137 42.593 2.85969H42.6752L42.9859 4.24636H42.9037C42.8287 4.0579 42.7133 3.88784 42.5656 3.7479L41.1947 4.05604C41.1947 4.05604 41.3546 4.8083 41.4871 5.27958C41.6196 5.75087 41.743 5.93213 42.401 5.78712C42.8298 5.71594 43.2205 5.49976 43.5069 5.17534C43.6002 5.01531 43.6651 4.84059 43.6988 4.65875H43.781L43.6668 5.76447" fill="#A1A1AA"/>
<path d="M36.6197 2.86355C36.4826 2.98137 36.4734 3.13999 36.5877 3.58408C36.8801 4.66714 37.1177 5.45563 37.5016 6.71541C37.5473 6.87855 37.6752 7.2456 37.6752 7.2456L37.5199 7.32266L33.156 4.70338C33.156 4.70338 33.6495 6.35289 33.8734 7.06435C34.0973 7.77582 34.1841 7.84377 34.3578 7.86189C34.558 7.87705 34.7594 7.86487 34.9564 7.82566L34.9883 7.92081L33.0098 8.49179L32.9824 8.39665C33.171 8.32416 33.3479 8.22493 33.5078 8.10208C33.6358 7.98879 33.6266 7.74862 33.5078 7.25921C33.2611 6.26679 32.731 4.42696 32.731 4.42696C32.5678 4.31882 32.3912 4.23201 32.2055 4.16865C32.0182 4.12108 31.8217 4.12108 31.6343 4.16865L31.6069 4.07348L33.6084 3.49345L33.6358 3.58859C33.6358 3.58859 33.2976 3.72003 33.2794 3.91942C34.7325 4.82574 37.0035 6.1535 37.0035 6.1535C37.0035 6.1535 36.5831 4.79402 36.2495 3.81066C36.053 3.23515 35.9525 3.12185 35.7286 3.11732C35.5476 3.10409 35.3658 3.10409 35.1848 3.11732V3.02668L37.1132 2.4693L37.1406 2.55994C36.9787 2.63724 36.8255 2.73142 36.6836 2.84089" fill="#A1A1AA"/>
<path d="M51.8834 0.33612C51.7006 0.458473 51.5132 0.653339 51.2802 1.41918C50.8232 2.86476 50.2612 4.96744 50.2612 4.96744L50.0784 4.99916C50.0784 4.99916 49.9687 4.75898 49.891 4.57319C49.3518 3.40403 48.4699 1.71825 48.4699 1.71825C48.4699 1.71825 47.9216 3.49919 47.4418 5.27105L47.259 5.30277L47.0808 4.88587C46.5964 3.79375 46.1075 2.76508 45.6048 1.71375C45.5146 1.45796 45.3389 1.24047 45.1068 1.09743C44.9157 1.01277 44.7082 0.97101 44.499 0.975092V0.879918L46.7335 0.639757V0.739439C46.5599 0.789287 46.2172 0.848194 46.2492 1.16088C46.2771 1.34473 46.3326 1.52342 46.4136 1.69107C46.6376 2.20314 46.962 2.90554 47.4784 3.99313C47.7845 2.95992 48.2552 1.27417 48.2552 1.27417C48.1721 1.05765 48.0086 0.88092 47.7982 0.780236C47.6391 0.702825 47.4637 0.663996 47.2864 0.666946V0.567236L49.5712 0.327075V0.426757C49.4204 0.46301 48.9132 0.549104 48.9543 0.929759C48.9823 1.10985 49.0394 1.2843 49.1234 1.44637C49.5072 2.25299 49.8591 2.91461 50.284 3.71217C50.284 3.71217 50.6496 2.39347 50.8689 1.44637C50.9426 1.17929 50.9765 0.902956 50.9695 0.626149C50.9375 0.318 50.5993 0.349719 50.3754 0.340656V0.240973L52.4043 0.0234375V0.123147C52.2213 0.157931 52.0454 0.222218 51.8834 0.313467" fill="#A1A1AA"/>
<path d="M61.3897 0.484885C61.1633 0.596549 60.9732 0.769321 60.8414 0.983351C60.3844 1.61324 59.6807 2.73708 59.6807 2.73708C59.648 2.95032 59.6267 3.16513 59.6167 3.38059C59.6167 3.59357 59.5939 3.81109 59.5893 3.96969C59.5893 4.25971 59.5893 4.47722 59.7949 4.60864C59.9801 4.68759 60.1754 4.74098 60.3753 4.76726V4.86694L57.9352 4.70381V4.60864C58.1369 4.60407 58.3375 4.57825 58.5338 4.53161C58.7211 4.46816 58.7851 4.29143 58.8262 3.93343C58.8673 3.57543 58.9085 2.93647 58.9085 2.93647C58.9085 2.93647 58.2779 1.55434 57.8483 0.761307C57.7545 0.56169 57.6172 0.385229 57.4462 0.244697C57.3264 0.170674 57.1927 0.12138 57.0532 0.0997097V0L59.0684 0.131407V0.231116C58.9359 0.231116 58.6114 0.231124 58.6114 0.493957C58.6175 0.652891 58.6614 0.808154 58.7394 0.947118C58.8536 1.22355 59.5071 2.49238 59.5071 2.49238C59.8135 2.04227 60.0957 1.57637 60.3524 1.09664C60.434 0.956501 60.4897 0.803039 60.5169 0.64348C60.5169 0.326268 60.197 0.303615 60.06 0.280957V0.181275L61.8284 0.294565V0.398784C61.6906 0.399194 61.5542 0.425321 61.4262 0.475813" fill="#A1A1AA"/>
<path d="M64.9966 5.46439C64.6726 5.41291 64.3623 5.29789 64.0837 5.12604C63.8051 4.95419 63.5639 4.72897 63.3741 4.46356C63.1843 4.19814 63.0498 3.89788 62.9785 3.5803C62.9071 3.26273 62.9004 2.93422 62.9586 2.61402C63.0249 2.28825 63.1567 1.97902 63.346 1.70476C63.5353 1.43051 63.7783 1.19681 64.0605 1.01756C64.3427 0.838303 64.6584 0.717163 64.9888 0.661339C65.3191 0.605515 65.6574 0.616165 65.9836 0.692621C66.3097 0.736655 66.6233 0.846113 66.9053 1.01435C67.1873 1.18258 67.4317 1.40605 67.6237 1.6711C67.8157 1.93615 67.9513 2.23724 68.022 2.55596C68.0928 2.87468 68.0973 3.20436 68.0353 3.52487C67.9688 3.85251 67.8367 4.16356 67.6468 4.43963C67.4569 4.7157 67.213 4.95114 66.9296 5.13201C66.6462 5.31288 66.3291 5.43551 65.9971 5.4926C65.6651 5.54969 65.3248 5.5401 64.9966 5.46439ZM65.8282 0.932782C64.7727 0.733391 64.0827 1.68956 63.8862 2.74542C63.6303 4.06865 64.1923 5.07466 65.1428 5.25592C66.2029 5.45531 66.8884 4.59884 67.1168 3.44328C67.3453 2.28772 66.9112 1.1775 65.8282 0.969042" fill="#A1A1AA"/>
<path d="M73.9389 6.99173C73.5743 6.93793 73.23 6.79101 72.94 6.56537C72.65 6.33973 72.4242 6.04315 72.2847 5.70477C72.1237 5.30057 72.0177 4.87691 71.9694 4.44497C71.7546 4.44497 71.188 4.4042 71.188 4.4042C71.188 4.4042 71.0646 5.00689 71.0007 5.43739C70.9687 5.67757 70.8819 6.05369 71.1743 6.1987C71.3251 6.26667 71.5993 6.36183 71.5993 6.36183V6.457L69.3511 6.00384V5.90867C69.5395 5.94321 69.7335 5.9339 69.9177 5.88148C70.1416 5.77272 70.1919 5.51895 70.2513 5.31503C70.3107 5.11111 70.4523 4.49934 70.5666 3.95555C70.6625 3.50239 70.7722 2.94953 70.8407 2.54169C70.9093 2.13385 70.9184 1.94352 70.7905 1.80757C70.6476 1.68873 70.4785 1.60491 70.2969 1.56288V1.46317C70.2969 1.46317 71.4714 1.68975 72.0608 1.81211C73.1347 2.03869 73.8886 2.59154 73.7286 3.39817C73.6542 3.64425 73.5067 3.86236 73.3053 4.02403C73.104 4.18571 72.8582 4.28344 72.6 4.30449C72.7104 4.83658 72.9064 5.34763 73.1803 5.81806C73.3581 6.11769 73.5834 6.38696 73.8475 6.6156C74.0825 6.79053 74.3471 6.92252 74.6289 7.00534V7.09598C74.4598 7.09598 74.1719 7.03705 73.9435 6.99173H73.9389ZM71.6952 1.96619L71.2383 4.019L71.9512 4.25011C72.1738 4.19907 72.3774 4.08705 72.539 3.92681C72.7006 3.76658 72.8136 3.56458 72.8651 3.34379C73.0478 2.49185 72.1659 2.09307 71.6587 1.98431" fill="#A1A1AA"/>
<path d="M75.8633 7.52197L75.8952 7.42683C76.0806 7.46164 76.2687 7.47983 76.4573 7.4812C76.6081 7.4812 76.7452 7.37698 76.9143 6.91475C77.0834 6.45253 77.225 6.06733 77.4078 5.51901C77.5906 4.97068 77.7094 4.63988 77.8647 4.19579C77.9378 3.96921 78.0201 3.74262 77.8647 3.56589C77.7326 3.43295 77.5779 3.32406 77.4078 3.24416L77.4397 3.14899L79.496 3.84231L79.4641 3.93748C79.3081 3.88653 79.1435 3.86651 78.9797 3.87857C78.7786 3.91482 78.6736 4.15048 78.5685 4.43144C78.3994 4.8846 78.2806 5.21541 78.1115 5.73654C77.9424 6.25768 77.8053 6.64286 77.6546 7.17759C77.5357 7.56278 77.5266 7.73498 77.6546 7.88452C77.7939 7.99878 77.9474 8.09473 78.1115 8.17002L78.0795 8.26516L75.8633 7.52197ZM78.605 8.42829L78.637 8.33315C78.637 8.33315 78.9614 8.42831 79.0939 8.30142C79.0813 8.14516 79.0427 7.99204 78.9797 7.84826C78.6232 6.86943 78.212 5.96763 78.212 5.96763C78.7604 5.64136 79.2539 5.32415 79.7611 4.95256C80.0535 4.73504 80.1952 4.60362 80.2454 4.46314C80.2957 4.32266 80.0946 4.1414 79.8981 4.05077L79.9302 3.9556L81.8814 4.60815L81.8493 4.70332C81.6803 4.66707 81.2005 4.47222 80.2729 4.99335C79.9256 5.19274 79.199 5.64589 78.9569 5.83169C79.2676 6.68363 79.5555 7.40417 79.7657 7.90717C79.8734 8.23649 80.06 8.53502 80.3094 8.77724C80.422 8.8712 80.5484 8.9476 80.6841 9.00382L80.6521 9.09445L78.605 8.42829Z" fill="#A1A1AA"/>
</svg>
