<svg width="135" height="44" viewBox="0 0 135 44" fill="none" xmlns="http://www.w3.org/2000/svg">
<g clip-path="url(#clip0_53_3318)" filter="url(#filter0_d_53_3318)">
<path d="M73.923 24.6256C73.7906 24.3948 73.6004 24.2024 73.3711 24.0674C73.5845 24.2219 73.7709 24.4105 73.923 24.6256Z" fill="#312F2A"/>
<path d="M73.2679 13.0824C67.1377 12.6515 64.9972 12.412 64.3292 11.9451L64.3193 11.9374C64.2914 11.9178 64.265 11.8963 64.2401 11.8731C62.9168 10.7613 65.6277 9.46514 68.285 9.52871C70.6177 9.58451 72.3475 9.74061 72.7116 11.4669H88.3715C85.9016 2.57254 79.4426 0 67.9011 0C56.1221 0 48.9972 4.66193 48.9972 12.5173C48.9972 19.2933 53.9844 22.2113 64.1482 22.9176C70.1632 23.3655 72.5362 23.612 73.3782 24.1184H73.3845C73.3923 24.1241 73.398 24.1297 73.405 24.1347C73.5299 24.2074 73.6337 24.3113 73.7062 24.4363C73.7967 24.5664 73.8375 24.7247 73.8211 24.8823C73.8048 25.0399 73.7324 25.1864 73.6171 25.2952C73.6065 25.3079 73.5931 25.3207 73.581 25.3334C72.9448 26.0291 71.1521 26.5758 69.3842 26.5342C68.0493 26.5867 66.7332 26.2069 65.632 25.4513C65.4485 25.3576 65.2857 25.228 65.1533 25.0703C65.0208 24.9125 64.9213 24.7299 64.8607 24.5331H48.1426C49.3302 32.2514 54.3633 36 69.1375 36C83.0061 36 88.7532 30.8705 88.7532 23.8119C88.7532 16.4234 83.291 13.7887 73.2721 13.0824" fill="#A1A1AA"/>
<path d="M49.8116 35.8307H34.3185L31.6393 27.2979H22.9742L20.2653 35.8293H4.72485L18.5391 1.39453H36.3812L49.8123 35.8293L49.8116 35.8307ZM27.3633 13.5897L27.0282 15.1684L24.2784 23.4094H30.4199L27.6991 15.2165L27.3633 13.5918V13.5897Z" fill="#A1A1AA"/>
<path d="M115.207 1.48424V16.6581H106.972V1.39453H91.9153V35.8293H106.972V20.5466H115.207V35.8293H130.264V1.39453L115.207 1.48424Z" fill="#A1A1AA"/>
</g>
<defs>
<filter id="filter0_d_53_3318" x="0.724854" y="0" width="133.55" height="44" filterUnits="userSpaceOnUse" color-interpolation-filters="sRGB">
<feFlood flood-opacity="0" result="BackgroundImageFix"/>
<feColorMatrix in="SourceAlpha" type="matrix" values="0 0 0 0 0 0 0 0 0 0 0 0 0 0 0 0 0 0 127 0" result="hardAlpha"/>
<feOffset dy="4"/>
<feGaussianBlur stdDeviation="2"/>
<feComposite in2="hardAlpha" operator="out"/>
<feColorMatrix type="matrix" values="0 0 0 0 0 0 0 0 0 0 0 0 0 0 0 0 0 0 0.25 0"/>
<feBlend mode="normal" in2="BackgroundImageFix" result="effect1_dropShadow_53_3318"/>
<feBlend mode="normal" in="SourceGraphic" in2="effect1_dropShadow_53_3318" result="shape"/>
</filter>
<clipPath id="clip0_53_3318">
<rect width="125.55" height="36" fill="white" transform="translate(4.72485)"/>
</clipPath>
</defs>
</svg>
